<svg xmlns="http://www.w3.org/2000/svg" viewBox="0 0 32 32"><path fill="#38004d" d="M17,32H15a3,3,0,0,1-3-3,1,1,0,0,0-.64-.9Q11,28,10.7,27.86A1,1,0,0,0,9.61,28a3,3,0,0,1-4.19,0L4,26.58a3,3,0,0,1,0-4.19,1,1,0,0,0,.18-1.09Q4,21,3.87,20.64A1,1,0,0,0,3,20a3,3,0,0,1-3-3V15a3,3,0,0,1,3-3,1,1,0,0,0,.9-.64Q4,11,4.14,10.7A1,1,0,0,0,4,9.61,3,3,0,0,1,4,5.42L5.42,4A3,3,0,0,1,9.61,4a1,1,0,0,0,1.09.18l.66-.27A1,1,0,0,0,12,3a3,3,0,0,1,3-3H17a3,3,0,0,1,3,3,1,1,0,0,0,.64.9l.66.27A1,1,0,0,0,22.39,4a3,3,0,0,1,4.19,0L28,5.42a3,3,0,0,1,0,4.19,1,1,0,0,0-.18,1.09q.15.33.27.66A1,1,0,0,0,29,12a3,3,0,0,1,3,3V17a3,3,0,0,1-3,3,1,1,0,0,0-.9.64q-.12.33-.27.66a1,1,0,0,0,.19,1.09,3,3,0,0,1,0,4.19L26.58,28a1,1,0,0,1-1.41,0,1,1,0,0,1,0-1.41l1.46-1.46a1,1,0,0,0,0-1.37,3,3,0,0,1-.6-3.32c.09-.18.16-.37.24-.56A2.93,2.93,0,0,1,29,18a1,1,0,0,0,1-1V15a1,1,0,0,0-1-1,3,3,0,0,1-2.77-1.92,5.48,5.48,0,0,0-.23-.56,3,3,0,0,1,.6-3.32,1,1,0,0,0,0-1.37L25.17,5.37a1,1,0,0,0-1.37,0,3,3,0,0,1-3.32.6,5.48,5.48,0,0,0-.56-.23A3,3,0,0,1,18,3a1,1,0,0,0-1-1H15a1,1,0,0,0-1,1,3,3,0,0,1-1.92,2.77,5.48,5.48,0,0,0-.56.23,3,3,0,0,1-3.32-.6,1,1,0,0,0-1.37,0L5.37,6.83a1,1,0,0,0,0,1.37A3,3,0,0,1,6,11.52c-.09.18-.16.37-.24.56A2.93,2.93,0,0,1,3,14a1,1,0,0,0-1,1V17a1,1,0,0,0,1,1,3,3,0,0,1,2.77,1.92,5.48,5.48,0,0,0,.23.56,3,3,0,0,1-.6,3.32,1,1,0,0,0,0,1.37l1.46,1.46a1,1,0,0,0,1.37,0,3,3,0,0,1,3.32-.6,5.48,5.48,0,0,0,.56.23A3,3,0,0,1,14,29a1,1,0,0,0,1,1H17a1,1,0,0,0,1-1,3,3,0,0,1,1.92-2.77,5.48,5.48,0,0,0,.56-.23,1,1,0,0,1,.82,1.83q-.33.15-.66.27A1,1,0,0,0,20,29,3,3,0,0,1,17,32Z"/><path fill="#9f85ec" d="M24,20.12c0-.3,0,1.24,0-8.12a1.18,1.18,0,0,0-.1-.43c-.2-.42.11-.14-7.4-4.44a1,1,0,0,0-1,0c-7.66,4.38-7.25,4-7.43,4.53C8,11.93,8,11.23,8,20a2.71,2.71,0,0,0,.07.32,1.48,1.48,0,0,0,.18.33l.25.22C16,25.14,15.64,25,16,25s0,.16,7.5-4.13l.25-.22A.87.87,0,0,0,24,20.12Zm-14-6.4,5,2.86v5.7l-5-2.86Zm7,2.86,5-2.86v5.7l-5,2.86ZM16,9.15,21,12l-5,2.85L11,12Z"/></svg>