<?xml version="1.0" encoding="UTF-8" standalone="no"?>
<svg
   xmlns:dc="http://purl.org/dc/elements/1.1/"
   xmlns:cc="http://creativecommons.org/ns#"
   xmlns:rdf="http://www.w3.org/1999/02/22-rdf-syntax-ns#"
   xmlns:svg="http://www.w3.org/2000/svg"
   xmlns="http://www.w3.org/2000/svg"
   viewBox="0 0 63.666668 43.639999"
   height="43.639999"
   width="63.666668"
   xml:space="preserve"
   id="svg2"
   version="1.1"><metadata
     id="metadata8"><rdf:RDF><cc:Work
         rdf:about=""><dc:format>image/svg+xml</dc:format><dc:type
           rdf:resource="http://purl.org/dc/dcmitype/StillImage" /></cc:Work></rdf:RDF></metadata><defs
     id="defs6" /><g
     transform="matrix(1.3333333,0,0,-1.3333333,0,43.64)"
     id="g10"><g
       transform="scale(0.1)"
       id="g12"><path
         id="path14"
         style="fill:transparent;fill-opacity:1;fill-rule:nonzero;stroke:none"
         d="M 477.5,0 H 0 V 327.262 H 477.5 V 0" /><path
         id="path16"
         style="fill:#ffffff;fill-opacity:1;fill-rule:evenodd;stroke:none"
         d="m 251.66,23.2227 c -1.75,0.0312 -2.793,0.4765 -3.437,0.9492 -0.032,-0.0703 -0.086,-0.0703 -0.118,-0.0977 -1.281,-0.6679 -3.203,-4.5703 3.829,-5.0586 6.308,-0.539 8.535,0.1367 9.48,0.5157 0.297,0.6054 0.274,1.1718 -0.309,1.5742 -2.597,1.8906 -5.011,1.9414 -9.445,2.1172 v 0" /><path
         id="path18"
         style="fill:#ffffff;fill-opacity:1;fill-rule:evenodd;stroke:none"
         d="m 257.637,27.6563 c -0.34,0.0312 -2.617,1.0429 -4.168,0 -1.516,-1.0235 -1.985,-1.9532 -2.09,-0.9375 -0.149,0.9687 1.863,13.8164 1.863,23.1523 0.02,9.3398 -0.703,9.1836 -0.929,12.7187 -0.274,3.5547 0.226,6.2579 0.226,6.2579 0,0 0.254,8.6328 1.941,11.0234 1.758,2.4141 0.762,-15.6133 1,-20.6602 0.145,-5.0195 -1.664,-22.3554 2.157,-31.5546 v 0" /><path
         id="path20"
         style="fill:#ffffff;fill-opacity:1;fill-rule:evenodd;stroke:none"
         d="m 223.645,23.7891 c -4.868,-0.4493 -4.836,0.9882 -3.7,2.4726 -3.461,-0.8515 -4.515,-1.3984 -3.84,-3.2656 0.727,-1.8906 6.375,-2.6719 10.774,-2.3594 4.367,0.3789 6.09,3.2891 7.539,3.3789 0.555,0.0586 1.309,-0.0312 2.187,-0.0898 -0.328,0.3515 -0.703,0.7226 -1.222,1.0859 -2.5,1.7071 -2.449,-0.4414 -11.738,-1.2226 v 0" /><path
         id="path22"
         style="fill:#ffffff;fill-opacity:1;fill-rule:evenodd;stroke:none"
         d="m 228.453,30.3633 c 0,0 -3.848,-0.0899 -3.59,4 0.211,4.0664 1.055,20.668 0.762,24.3203 -0.293,3.6602 -1.57,2.1367 -2.418,4.3359 -0.844,2.1485 0.934,3.5039 0.383,5.5274 -0.555,1.9883 -0.414,4.1094 0.348,5.0976 0.753,0.9063 1.339,4.9219 1.136,7.5 -0.211,2.5782 1.946,4.7735 3.664,2.8321 1.692,-1.8985 -1.254,-9.6797 -1.547,-14.1797 -0.343,-4.543 0.414,-32.8516 1.262,-39.4336 v 0" /><path
         id="path24"
         style="fill:#ffffff;fill-opacity:1;fill-rule:evenodd;stroke:none"
         d="m 236.809,81.6133 c 0,0 -1.836,0.8867 -3.118,1.5117 -1.281,0.6445 -2.152,0.6445 -1.98,0.8516 0.121,0.2148 4.809,15.6406 9.352,22.3044 4.457,6.715 10.246,7.586 13.578,8.336 3.218,0.707 -14.485,-0.554 -17.832,-33.0037 v 0" /><path
         id="path26"
         style="fill:#ffffff;fill-opacity:1;fill-rule:evenodd;stroke:none"
         d="m 211.121,185.469 c 0,0 5.793,-11.246 11.07,-14.449 5.293,-3.172 7.571,-3 10.45,-2.239 2.855,0.754 -5.004,0.551 -6,1.438 -1.071,0.89 -13.711,15.89 -13.711,15.89 l -1.809,-0.64" /><path
         id="path28"
         style="fill:#ffffff;fill-opacity:1;fill-rule:evenodd;stroke:none"
         d="m 198.652,174.355 2.446,18.758 -1.192,1.575 -3.121,-19.196 1.867,-1.137" /><path
         id="path30"
         style="fill:#ffffff;fill-opacity:1;fill-rule:evenodd;stroke:none"
         d="m 196.875,190.492 c 0,0 -2.68,0.215 -2.5,3.469 0.145,3.211 2.816,8.023 3.461,7.773 0.672,-0.203 1.375,-0.129 1.019,-0.89 -0.347,-0.754 -2.972,-7.309 -1.98,-10.352 v 0" /><path
         id="path32"
         style="fill:#ffffff;fill-opacity:1;fill-rule:evenodd;stroke:none"
         d="m 209.457,253.918 c 0,0 5.047,5.574 1.023,-23.875 -4.019,-29.492 -8.832,-30.199 -8.832,-30.199 l 4.692,27.668 3.117,26.406" /><path
         id="path34"
         style="fill:#ffffff;fill-opacity:1;fill-rule:evenodd;stroke:none"
         d="m 247.473,184.449 c 0.047,-0.449 0.144,-0.871 0.203,-1.265 0.234,0.082 0.429,0.129 0.691,0.214 0.207,0.043 0.395,0.09 0.586,0.133 4.692,7.051 10.371,8.403 13.84,8.61 -6.445,3.214 -15.176,-0.25 -15.32,-7.692 v 0" /><path
         id="path36"
         style="fill:#181716;fill-opacity:1;fill-rule:nonzero;stroke:none"
         d="m 205.383,199.027 c -0.063,0 -0.09,0.016 -0.149,0.028 -0.207,0.078 -0.351,0.304 -0.257,0.523 0.023,0.106 3.086,9.777 7.132,26.043 3.704,14.707 0.704,26.137 0.118,28.18 l -2.364,-0.266 c -0.898,-19.336 -5.644,-42.715 -7.222,-50.414 -0.293,-1.457 -0.524,-2.609 -0.524,-2.785 0.031,-0.215 -0.113,-0.402 -0.347,-0.449 -0.231,-0.043 -0.465,0.144 -0.493,0.383 -0.031,0.14 0,0.242 0.555,3.007 1.566,7.75 6.344,31.313 7.223,50.653 0,0.215 0.175,0.383 0.379,0.406 l 3.027,0.336 c 0.203,0.035 0.375,-0.102 0.469,-0.277 0.023,-0.125 4.125,-12.567 0,-28.981 -4.051,-16.293 -7.145,-25.988 -7.168,-26.082 -0.059,-0.191 -0.203,-0.305 -0.379,-0.305" /><path
         id="path38"
         style="fill:#181716;fill-opacity:1;fill-rule:nonzero;stroke:none"
         d="m 209.898,191.047 c -0.242,0 -0.441,0.187 -0.441,0.418 0,0.043 -0.023,3.613 -2.769,5.976 -1.977,1.758 -4.54,2.36 -5.649,1.817 -0.402,-0.215 -0.609,-0.582 -0.578,-1.137 0.144,-2.308 3.988,-4.609 4.016,-4.644 0.207,-0.114 0.265,-0.379 0.148,-0.582 -0.121,-0.192 -0.383,-0.262 -0.586,-0.145 -0.172,0.102 -4.254,2.563 -4.426,5.332 -0.058,0.883 0.321,1.57 1.078,1.938 1.571,0.765 4.454,-0.079 6.555,-1.938 3.031,-2.621 3.059,-6.449 3.059,-6.617 0,-0.231 -0.172,-0.418 -0.407,-0.418 v 0" /><path
         id="path40"
         style="fill:#181716;fill-opacity:1;fill-rule:nonzero;stroke:none"
         d="m 205.527,186.461 2.446,-3.5 4.66,4.008 c -0.348,1.117 -1.863,3.062 -3.145,3.062 -0.347,0 -0.672,-0.148 -0.992,-0.468 -1.133,-1.125 -2.476,-2.551 -2.969,-3.102 z m 2.387,-4.547 c -0.031,0 -0.059,0 -0.059,0.02 -0.113,0.011 -0.234,0.07 -0.292,0.171 l -2.915,4.133 c -0.113,0.149 -0.113,0.348 0,0.496 0.149,0.219 1.922,2.094 3.266,3.422 0.465,0.485 0.992,0.711 1.574,0.711 1.918,0 3.789,-2.613 4.02,-3.972 0.027,-0.149 0,-0.29 -0.125,-0.391 l -5.207,-4.488 c -0.086,-0.059 -0.172,-0.102 -0.262,-0.102" /><path
         id="path42"
         style="fill:#181716;fill-opacity:1;fill-rule:nonzero;stroke:none"
         d="m 200.105,173.848 c -1.042,0 -2.937,0.082 -3.429,0.715 -0.149,0.199 -0.559,0.753 3.195,19.863 0.063,0.23 0.27,0.379 0.5,0.336 0.234,-0.043 0.383,-0.278 0.348,-0.492 -1.34,-6.836 -3.406,-17.907 -3.348,-19.227 0.289,-0.195 1.457,-0.336 2.649,-0.352 l 3.847,18.508 c 0.028,0.235 0.266,0.379 0.496,0.336 0.231,-0.058 0.379,-0.273 0.321,-0.508 l -3.903,-18.847 c -0.027,-0.188 -0.211,-0.332 -0.41,-0.332 -0.058,0 -0.144,0 -0.266,0" /><path
         id="path44"
         style="fill:#181716;fill-opacity:1;fill-rule:nonzero;stroke:none"
         d="m 198.563,191.891 c -0.086,0 -0.172,0.023 -0.235,0.074 -0.808,0.578 -3.672,2.062 -3.695,2.098 -0.203,0.101 -0.258,0.363 -0.176,0.566 0.113,0.199 0.383,0.277 0.582,0.176 0.117,-0.063 2.914,-1.543 3.762,-2.137 0.203,-0.133 0.226,-0.398 0.113,-0.605 -0.086,-0.114 -0.23,-0.172 -0.351,-0.172 z m -0.551,-2.051 c -1.864,0 -3.817,1.836 -3.871,1.918 -0.18,0.156 -0.18,0.426 -0.036,0.597 0.176,0.165 0.442,0.18 0.614,0.016 0,-0.031 1.867,-1.75 3.379,-1.687 0.465,0.015 0.847,0.207 1.164,0.566 0.148,0.176 0.41,0.191 0.586,0.031 0.172,-0.16 0.207,-0.426 0.023,-0.597 -0.461,-0.543 -1.043,-0.821 -1.746,-0.844 -0.055,0 -0.09,0 -0.113,0" /><path
         id="path46"
         style="fill:#181716;fill-opacity:1;fill-rule:nonzero;stroke:none"
         d="m 198.969,194.133 c -0.055,0 -0.141,0.012 -0.199,0.058 l -3.438,2.2 c -0.203,0.129 -0.258,0.394 -0.117,0.582 0.117,0.199 0.383,0.265 0.582,0.132 l 3.414,-2.199 c 0.199,-0.121 0.258,-0.379 0.141,-0.586 -0.09,-0.109 -0.235,-0.187 -0.383,-0.187" /><path
         id="path48"
         style="fill:#181716;fill-opacity:1;fill-rule:nonzero;stroke:none"
         d="m 199.32,196.492 c -0.086,0 -0.172,0.028 -0.226,0.086 l -3.176,2.274 c -0.203,0.148 -0.234,0.406 -0.121,0.597 0.144,0.192 0.414,0.235 0.609,0.102 l 3.149,-2.285 c 0.207,-0.149 0.23,-0.411 0.117,-0.602 -0.082,-0.109 -0.231,-0.172 -0.352,-0.172" /><path
         id="path50"
         style="fill:#181716;fill-opacity:1;fill-rule:nonzero;stroke:none"
         d="m 194.34,191.758 c -0.027,0 -0.027,0 -0.059,0.019 -0.226,0.024 -0.402,0.231 -0.375,0.465 0.055,0.301 0.992,7.699 3.285,9.363 0.442,0.321 0.907,0.438 1.403,0.333 0.902,-0.192 1.777,-0.688 2.359,-1.016 0.168,-0.102 0.324,-0.188 0.41,-0.223 0.235,-0.086 0.348,-0.332 0.258,-0.551 -0.082,-0.214 -0.316,-0.32 -0.551,-0.25 -0.117,0.043 -0.289,0.145 -0.55,0.293 -0.524,0.293 -1.344,0.758 -2.102,0.922 -0.234,0.055 -0.465,-0.019 -0.727,-0.191 -1.66,-1.215 -2.679,-6.746 -2.941,-8.781 -0.031,-0.227 -0.203,-0.383 -0.41,-0.383" /><path
         id="path52"
         style="fill:#181716;fill-opacity:1;fill-rule:nonzero;stroke:none"
         d="m 250.852,167.219 c 0,0 -0.039,0 -0.063,0 0,0 -1.285,0.179 -3.379,0.293 -0.523,0.027 -1.289,0.043 -2.183,0.058 -2.954,0.043 -7.434,0.102 -10.692,0.887 -4.43,1.051 -6,0.977 -6.793,0.934 -0.926,-0.043 -1.031,0.086 -1.883,1.093 -0.73,0.856 -2.097,2.446 -5.152,5.43 -5.394,5.301 -8.273,10.223 -8.305,10.27 -0.117,0.203 -0.062,0.461 0.141,0.578 0.211,0.117 0.477,0.051 0.582,-0.141 0.035,-0.058 2.891,-4.879 8.188,-10.113 3.05,-2.996 4.429,-4.613 5.187,-5.473 0.672,-0.832 0.672,-0.832 1.227,-0.801 0.808,0.043 2.468,0.118 6.984,-0.961 3.211,-0.757 7.602,-0.816 10.516,-0.859 0.933,-0.016 1.714,-0.031 2.246,-0.059 2.129,-0.128 3.379,-0.292 3.425,-0.292 0.247,-0.043 0.411,-0.247 0.379,-0.481 -0.015,-0.219 -0.191,-0.363 -0.425,-0.363" /><path
         id="path54"
         style="fill:#181716;fill-opacity:1;fill-rule:nonzero;stroke:none"
         d="m 242.402,153.02 c -0.039,0 -0.058,0 -0.129,0.015 -0.078,0.012 -8.527,2.289 -10.441,2.649 -1.867,0.382 -2.277,2.55 -2.328,3.336 -1.574,0.652 -9.914,4.164 -12.262,6.089 -2.535,2.063 -9.5,16.555 -9.793,17.188 -0.121,0.199 -0.031,0.445 0.172,0.551 0.234,0.101 0.469,0.015 0.586,-0.192 2.477,-5.172 7.656,-15.336 9.551,-16.894 2.48,-1.992 12.207,-6.012 12.297,-6.055 0.14,-0.059 0.258,-0.203 0.258,-0.383 0,-0.027 0.085,-2.488 1.691,-2.801 1.926,-0.39 10.164,-2.585 10.516,-2.675 0.222,-0.059 0.339,-0.293 0.293,-0.52 -0.071,-0.183 -0.247,-0.308 -0.411,-0.308" /><path
         id="path56"
         style="fill:#181716;fill-opacity:1;fill-rule:nonzero;stroke:none"
         d="m 230.898,156.582 c -0.085,0 -0.175,0.02 -0.238,0.039 -0.23,0.039 -0.379,0.254 -0.347,0.488 0.054,0.235 0.257,0.379 0.5,0.34 0.117,-0.015 0.203,0 0.292,0.071 1.012,0.933 0.637,6.691 0.434,9.437 -0.055,1.035 -0.125,1.836 -0.125,2.328 0,0.238 0.18,0.422 0.418,0.422 0.223,0 0.43,-0.184 0.43,-0.422 0,-0.461 0.066,-1.293 0.121,-2.269 0.32,-4.7 0.515,-9.012 -0.727,-10.121 -0.242,-0.204 -0.5,-0.313 -0.758,-0.313" /><path
         id="path58"
         style="fill:#181716;fill-opacity:1;fill-rule:nonzero;stroke:none"
         d="m 239.746,108.73 c -0.105,0 -0.226,0.04 -0.281,0.118 -0.188,0.168 -0.188,0.429 -0.031,0.597 6.894,7.379 5.5,19.336 4.011,31.953 -0.632,5.645 -1.336,11.473 -1.218,16.864 0,0.234 0.175,0.437 0.429,0.422 0.242,-0.012 0.418,-0.204 0.418,-0.43 -0.125,-5.344 0.547,-11.145 1.223,-16.75 1.484,-12.832 2.91,-24.973 -4.258,-32.625 -0.09,-0.09 -0.203,-0.149 -0.293,-0.149" /><path
         id="path60"
         style="fill:#181716;fill-opacity:1;fill-rule:nonzero;stroke:none"
         d="m 272.434,119.445 c -0.176,0 -0.344,0.086 -0.414,0.254 -0.016,0.086 -0.379,1.055 -0.692,5.957 -0.293,5.039 1.238,11.114 1.309,11.367 0.058,0.223 0.293,0.372 0.515,0.313 0.246,-0.059 0.364,-0.293 0.293,-0.527 0,-0.063 -1.558,-6.204 -1.277,-11.094 0.32,-4.746 0.645,-5.676 0.645,-5.715 0.085,-0.215 -0.032,-0.457 -0.247,-0.535 -0.046,-0.02 -0.105,-0.02 -0.132,-0.02" /><path
         id="path62"
         style="fill:#181716;fill-opacity:1;fill-rule:nonzero;stroke:none"
         d="m 274.414,135.996 c -0.059,0 -0.09,0 -0.144,0.031 -0.239,0.067 -0.356,0.321 -0.266,0.536 0.754,2.082 4.219,3.281 7.101,3.332 2.274,0.046 3.844,-0.559 4.317,-1.68 0.098,-0.219 -0.024,-0.461 -0.234,-0.547 -0.239,-0.078 -0.461,0.02 -0.547,0.234 -0.325,0.731 -1.692,1.192 -3.496,1.153 -2.661,-0.063 -5.747,-1.106 -6.348,-2.785 -0.07,-0.176 -0.207,-0.274 -0.383,-0.274" /><path
         id="path64"
         style="fill:#181716;fill-opacity:1;fill-rule:nonzero;stroke:none"
         d="m 285.02,137.648 c -0.207,0 -0.379,0.157 -0.411,0.379 -0.039,0.071 -0.937,7.879 -3.379,15.118 -2.453,7.113 -11.328,12.382 -11.417,12.441 -0.086,0.043 -0.172,0.133 -0.204,0.219 l -1.66,4.636 -2.363,0.809 c -0.203,0.078 -0.32,0.324 -0.234,0.543 0.058,0.219 0.293,0.336 0.527,0.262 l 2.539,-0.887 c 0.117,-0.047 0.203,-0.133 0.254,-0.262 l 1.687,-4.679 c 1.172,-0.707 9.258,-5.813 11.692,-12.809 2.469,-7.313 3.371,-15.223 3.398,-15.305 0,-0.242 -0.136,-0.445 -0.383,-0.465 -0.027,0 -0.027,0 -0.046,0" /><path
         id="path66"
         style="fill:#181716;fill-opacity:1;fill-rule:nonzero;stroke:none"
         d="m 278.313,114.816 c -0.09,0 -0.176,0.02 -0.227,0.067 -0.066,0.019 -4.309,3.34 -3.938,4.316 0.872,2.696 2.883,10.149 2.629,11.328 -0.363,1.641 -1.726,4.668 -1.757,4.7 -0.086,0.214 0,0.457 0.246,0.566 0.203,0.086 0.457,0 0.547,-0.219 0.054,-0.133 1.421,-3.152 1.804,-4.851 0.352,-1.59 -2.043,-9.832 -2.644,-11.731 0.293,-0.574 2.672,-2.762 3.406,-3.297 0.09,-0.011 0.176,-0.058 0.226,-0.129 0.157,-0.164 0.172,-0.457 0.067,-0.625 -0.098,-0.078 -0.203,-0.125 -0.359,-0.125" /><path
         id="path68"
         style="fill:#181716;fill-opacity:1;fill-rule:nonzero;stroke:none"
         d="m 255.859,157.578 c -0.031,0 -0.058,0 -0.089,0.02 -0.145,0.023 -0.262,0.113 -0.321,0.238 l -3,6.984 c -0.086,0.2 0,0.45 0.239,0.551 0.195,0.09 0.464,-0.016 0.554,-0.219 l 2.766,-6.437 c 0.957,0.875 3.465,3.105 6.492,5.621 3.762,3.086 5.039,6.215 5.039,6.246 0.09,0.219 0.344,0.324 0.547,0.238 0.242,-0.093 0.332,-0.336 0.242,-0.543 -0.066,-0.144 -1.348,-3.343 -5.269,-6.593 -3.879,-3.204 -6.907,-5.957 -6.938,-5.989 -0.066,-0.074 -0.176,-0.117 -0.262,-0.117" /><path
         id="path70"
         style="fill:#181716;fill-opacity:1;fill-rule:nonzero;stroke:none"
         d="m 244.813,176.133 c -0.106,0 -0.223,0.043 -0.282,0.129 -0.183,0.164 -0.183,0.422 0,0.586 0.086,0.101 2.246,2.226 6.699,2.754 4.305,0.496 8.614,0.597 10.743,0.242 1.98,-0.352 6.648,-2.094 6.843,-2.176 0.207,-0.078 0.325,-0.328 0.239,-0.543 -0.09,-0.219 -0.325,-0.34 -0.547,-0.25 -0.039,0.016 -4.758,1.809 -6.684,2.145 -2.027,0.335 -6.344,0.226 -10.476,-0.27 -4.168,-0.473 -6.211,-2.469 -6.243,-2.5 -0.085,-0.074 -0.203,-0.117 -0.292,-0.117" /><path
         id="path72"
         style="fill:#181716;fill-opacity:1;fill-rule:nonzero;stroke:none"
         d="m 264.797,184.426 4.844,-2.453 0.203,1.183 -5.071,2.52 z m 5.152,-3.52 c -0.047,0 -0.105,0.016 -0.176,0.047 l -5.585,2.828 c -0.145,0.071 -0.235,0.219 -0.235,0.375 l -0.027,2.184 c 0,0.164 0.058,0.293 0.215,0.379 0.105,0.074 0.254,0.094 0.398,0.015 l 5.941,-2.953 c 0.172,-0.09 0.262,-0.265 0.235,-0.453 l -0.317,-2.066 c -0.039,-0.133 -0.125,-0.25 -0.242,-0.309 -0.051,-0.031 -0.117,-0.047 -0.207,-0.047" /><path
         id="path74"
         style="fill:#181716;fill-opacity:1;fill-rule:nonzero;stroke:none"
         d="m 251.379,166.914 c -0.234,0 -0.441,0.191 -0.441,0.426 0,0.23 0.207,0.418 0.441,0.418 0.016,0 2.703,0.047 6.863,1.992 4.207,1.984 6.668,4.18 6.707,4.199 0.09,0.071 0.168,0.114 0.293,0.114 0,0 1.797,0.015 2.68,1.328 0.789,1.148 1.336,4.746 1.512,6.027 0.031,0.234 0.207,0.395 0.468,0.367 0.235,-0.015 0.371,-0.23 0.34,-0.465 0,-0.191 -0.554,-4.855 -1.621,-6.398 -0.965,-1.442 -2.683,-1.66 -3.211,-1.703 -0.547,-0.465 -2.937,-2.418 -6.816,-4.227 -4.336,-2.047 -7.11,-2.078 -7.215,-2.078" /><path
         id="path76"
         style="fill:#181716;fill-opacity:1;fill-rule:nonzero;stroke:none"
         d="m 247.727,172.328 c -0.207,0 -0.372,0.133 -0.403,0.324 -0.058,0.219 0.086,0.453 0.293,0.512 7.11,1.758 12.813,2.035 17.996,0.891 0.239,-0.047 0.383,-0.282 0.325,-0.52 -0.059,-0.215 -0.262,-0.359 -0.5,-0.316 -5.04,1.136 -10.625,0.844 -17.625,-0.875 -0.02,-0.016 -0.047,-0.016 -0.086,-0.016" /><path
         id="path78"
         style="fill:#181716;fill-opacity:1;fill-rule:nonzero;stroke:none"
         d="m 252.5,167.219 c -0.187,0 -0.371,0.136 -0.398,0.336 -0.149,0.699 12.488,11.273 12.644,11.375 0.164,0.133 0.43,0.09 0.574,-0.102 0.149,-0.191 0.09,-0.453 -0.078,-0.586 -1.465,-1.035 -11.656,-9.976 -12.359,-10.801 -0.051,-0.101 -0.18,-0.191 -0.293,-0.222 -0.024,0 -0.051,0 -0.09,0" /><path
         id="path80"
         style="fill:#181716;fill-opacity:1;fill-rule:nonzero;stroke:none"
         d="m 252.246,167.305 c 0,0 -0.019,0 -0.058,0 -0.235,0.035 -0.379,0.25 -0.34,0.484 0.254,1.762 0.398,3.504 0.547,5.375 0.171,2.008 0.347,4.106 0.671,6.289 0.02,0.219 0.223,0.375 0.489,0.352 0.207,-0.028 0.383,-0.25 0.359,-0.485 -0.359,-2.152 -0.496,-4.222 -0.672,-6.234 -0.156,-1.875 -0.293,-3.637 -0.554,-5.43 -0.032,-0.207 -0.239,-0.351 -0.442,-0.351" /><path
         id="path82"
         style="fill:#181716;fill-opacity:1;fill-rule:nonzero;stroke:none"
         d="m 251.379,166.914 c -0.234,0 -0.41,0.176 -0.441,0.406 0,0.035 -0.208,3.231 -0.965,5.875 -0.469,1.625 -1.418,3.68 -2.18,5.067 -0.117,0.207 -0.066,0.449 0.137,0.566 0.207,0.113 0.468,0.043 0.586,-0.18 0.793,-1.406 1.804,-3.515 2.273,-5.226 0.781,-2.723 0.988,-5.91 0.988,-6.059 0.032,-0.234 -0.136,-0.418 -0.382,-0.449 -0.016,0 -0.016,0 -0.016,0" /><path
         id="path84"
         style="fill:#181716;fill-opacity:1;fill-rule:nonzero;stroke:none"
         d="m 246.035,179.512 c -0.105,0 -0.195,0.043 -0.293,0.117 -0.051,0.043 -0.984,0.957 -0.691,2.07 0.23,0.957 1.344,1.656 3.211,2.106 5.09,1.215 11.535,0.672 13.398,0.48 2.442,-0.258 4.016,-1.469 4.07,-1.527 0.208,-0.145 0.239,-0.403 0.098,-0.594 -0.152,-0.176 -0.418,-0.219 -0.586,-0.074 -0.039,0.015 -1.492,1.117 -3.711,1.351 -1.804,0.192 -8.113,0.735 -13.062,-0.449 -1.528,-0.359 -2.453,-0.902 -2.602,-1.515 -0.176,-0.614 0.461,-1.239 0.461,-1.239 0.176,-0.16 0.176,-0.418 0,-0.597 -0.051,-0.086 -0.168,-0.129 -0.293,-0.129" /><path
         id="path86"
         style="fill:#181716;fill-opacity:1;fill-rule:nonzero;stroke:none"
         d="m 263.176,178.711 c -0.246,0 -0.41,0.16 -0.449,0.375 -0.024,0.227 0.156,0.441 0.378,0.469 v 0 c 0,0 0.586,0.101 1.29,1.05 0.761,1.036 0.847,2.137 0.847,2.153 0,0.222 0.227,0.398 0.434,0.383 0.23,-0.02 0.41,-0.227 0.41,-0.453 0,-0.047 -0.117,-1.36 -1.02,-2.579 -0.925,-1.25 -1.753,-1.382 -1.875,-1.398 h -0.015" /><path
         id="path88"
         style="fill:#181716;fill-opacity:1;fill-rule:nonzero;stroke:none"
         d="m 247.52,183.02 c -0.223,0 -0.403,0.164 -0.43,0.378 -0.52,5.887 3.808,9.352 8.332,10.153 5.183,0.953 11.734,-1.5 13.808,-9.074 0.055,-0.219 -0.058,-0.45 -0.292,-0.512 -0.227,-0.059 -0.469,0.078 -0.52,0.293 -1.934,7.062 -8.02,9.336 -12.852,8.461 -4.128,-0.742 -8.093,-3.891 -7.636,-9.242 0.039,-0.235 -0.137,-0.442 -0.371,-0.457 h -0.039" /><path
         id="path90"
         style="fill:#181716;fill-opacity:1;fill-rule:nonzero;stroke:none"
         d="m 251.379,166.914 c -0.149,0 -0.274,0.059 -0.356,0.176 l -6.726,9.043 c -0.117,0.187 -0.086,0.453 0.09,0.597 0.203,0.129 0.457,0.102 0.613,-0.089 l 6.688,-9.043 c 0.16,-0.192 0.121,-0.45 -0.086,-0.594 -0.047,-0.059 -0.137,-0.09 -0.223,-0.09" /><path
         id="path92"
         style="fill:#181716;fill-opacity:1;fill-rule:nonzero;stroke:none"
         d="m 231.156,83.9766 c -0.051,0 -0.086,0.0156 -0.14,0.0273 -0.203,0.0781 -0.325,0.3203 -0.27,0.5391 10.895,30.801 14.012,30.867 28.871,31.27 2.738,0.078 5.852,0.164 9.524,0.449 0.261,0.027 0.429,-0.157 0.429,-0.395 0.039,-0.23 -0.136,-0.437 -0.382,-0.457 -3.653,-0.281 -6.778,-0.371 -9.547,-0.437 -14.375,-0.383 -17.383,-0.461 -28.075,-30.7035 -0.062,-0.1757 -0.234,-0.2929 -0.41,-0.2929" /><path
         id="path94"
         style="fill:#181716;fill-opacity:1;fill-rule:nonzero;stroke:none"
         d="m 224.934,20.1367 c -3.86,0 -8.485,0.7617 -9.211,2.7149 -0.293,0.7812 -0.293,1.3945 -0.032,1.8867 0.5,0.918 1.747,1.3476 4.368,1.9805 2.617,0.6445 5.996,2.4531 7.578,3.3789 -0.875,0.2461 -2.133,0.7617 -2.801,1.6875 -0.473,0.5859 -0.606,1.289 -0.473,2.0742 0.446,2.6836 0.828,23.2304 0.879,26.3086 -0.894,0.2929 -1.914,1.6015 -2.414,2.664 -0.637,1.4766 -0.519,2.7344 0.348,3.5547 -0.293,0.5078 -0.758,1.5625 -0.555,2.6289 0.145,0.6719 0.5,0.918 0.758,1.0157 0.059,0.0273 0.121,0.039 0.176,0.0468 -0.379,0.7813 -0.789,1.836 -0.52,2.5508 0.262,0.7227 0.778,0.9453 1.223,0.9844 0.023,1.3359 0.055,5.332 0.523,8.5742 0.153,1.1055 0.614,1.875 1.395,2.2852 2.012,1.0234 5.566,-0.586 8.039,-1.8946 4.574,-2.5 6.664,-6.3086 6.207,-11.3672 -0.52,-5.4961 0.203,-9.6679 0.789,-13.0078 l 0.137,-0.6914 c 0.617,-3.5351 -0.868,-10.8203 -1.828,-13.7226 -0.145,-0.3985 -0.29,-0.8477 -0.465,-1.3477 -1.106,-3.25 -2.778,-8.1719 -2.535,-11.0234 0.226,-2.4532 -0.243,-4.1992 -1.282,-5.1289 -0.789,-0.6758 -1.871,-0.8789 -3.203,-0.5547 -3.637,0.8203 -3.234,3.7578 -3.234,3.8164 0.027,0.207 0.23,0.3828 0.461,0.3437 0.242,-0.0234 0.41,-0.2539 0.347,-0.4882 0,-0.0899 -0.257,-2.1875 2.633,-2.8516 1.039,-0.2656 1.86,-0.1289 2.438,0.3711 0.843,0.7305 1.199,2.3125 0.996,4.4023 -0.262,3.0352 1.453,8.0664 2.586,11.3867 0.156,0.4883 0.324,0.9454 0.449,1.3399 0.945,2.8398 2.383,9.9101 1.797,13.3086 l -0.11,0.7031 c -0.625,3.3867 -1.343,7.6094 -0.828,13.2344 0.45,4.7539 -1.445,8.1836 -5.738,10.5351 -1.332,0.6954 -5.414,2.8438 -7.246,1.875 -0.551,-0.2734 -0.871,-0.8086 -0.961,-1.6484 -0.551,-3.8477 -0.523,-8.8477 -0.523,-8.8867 0,-0.1485 -0.063,-0.2735 -0.153,-0.332 -0.113,-0.1016 -0.258,-0.129 -0.379,-0.0782 -0.117,0.0274 -0.57,0.086 -0.757,-0.4218 -0.168,-0.5352 0.468,-1.9141 0.968,-2.7149 0.117,-0.1641 0.082,-0.3984 -0.054,-0.5351 -0.157,-0.1485 -0.379,-0.1485 -0.555,-0.0313 -0.117,0.1094 -0.379,0.2148 -0.5,0.168 -0.082,-0.0196 -0.172,-0.168 -0.234,-0.3907 -0.196,-1.1054 0.617,-2.3164 0.617,-2.3242 0.14,-0.1875 0.086,-0.4609 -0.09,-0.5859 -0.703,-0.4805 -0.875,-1.25 -0.527,-2.2969 0.5,-1.5156 1.773,-2.6953 2.132,-2.6953 v 0 c 0.11,0.0391 0.258,0.0117 0.348,-0.0781 0.117,-0.086 0.172,-0.2031 0.172,-0.3321 -0.035,-0.9765 -0.41,-23.8476 -0.899,-26.8046 -0.089,-0.5586 0,-1.0274 0.313,-1.4375 0.934,-1.25 3.324,-1.6016 3.359,-1.6016 0.168,0 0.313,-0.1367 0.348,-0.3203 0.027,-0.1758 -0.035,-0.3516 -0.207,-0.4297 -0.203,-0.1484 -5.066,-3.1484 -8.738,-4.0273 -2.243,-0.543 -3.504,-0.9649 -3.817,-1.5704 -0.117,-0.164 -0.203,-0.457 0.055,-1.1992 0.551,-1.4453 5.476,-2.4336 10.344,-2.0703 2.621,0.2422 4.273,1.4336 5.48,2.3125 0.777,0.5859 1.399,1.0156 2.067,1.0664 0.402,0.0391 0.871,-0.0195 1.394,-0.0508 1.367,-0.0859 3.266,-0.2226 5.852,0.586 1.086,0.3437 1.777,0.8398 2.07,1.5117 0.527,1.1055 -0.117,2.5625 -0.469,3.3516 -0.254,0.6367 -0.515,1.3554 -0.754,2.121 -0.398,1.2579 -0.847,2.5665 -1.394,3.3594 -1.114,1.5313 -0.781,10.75 0.207,13.3203 1.012,2.5664 1.687,10.4571 0.633,15.3399 -1.164,5.2265 0.808,7.539 4.082,11.3594 l 0.175,0.2148 c 3.313,3.8555 6.805,9.3437 6.844,9.4141 0.117,0.2031 0.403,0.2539 0.586,0.125 0.195,-0.1172 0.258,-0.3789 0.141,-0.586 -0.051,-0.0469 -3.586,-5.6054 -6.938,-9.5117 l -0.164,-0.2148 c -3.301,-3.8672 -4.949,-5.793 -3.879,-10.625 1.106,-5.1758 0.344,-13.1641 -0.691,-15.8204 -1.027,-2.6445 -1.082,-11.4453 -0.293,-12.539 0.605,-0.8789 1.047,-2.2461 1.484,-3.5625 0.254,-0.7461 0.496,-1.4649 0.723,-2.0508 0.41,-0.9023 1.133,-2.5898 0.5,-4.0547 -0.41,-0.8984 -1.289,-1.5312 -2.602,-1.9609 -2.73,-0.8516 -4.714,-0.7149 -6.175,-0.625 -0.489,0.039 -0.93,0.0586 -1.278,0.0586 -0.41,-0.0196 -0.965,-0.4024 -1.636,-0.9024 -1.274,-0.9258 -3.016,-2.2422 -5.879,-2.4687 -0.641,-0.0664 -1.309,-0.0977 -2,-0.0977" /><path
         id="path96"
         style="fill:#181716;fill-opacity:1;fill-rule:nonzero;stroke:none"
         d="m 237.5,31.9648 c -0.895,0 -1.531,0.4454 -1.598,0.4454 -0.175,0.1406 -0.226,0.4023 -0.113,0.6093 0.113,0.1641 0.383,0.2344 0.578,0.1172 v 0 c 0.063,-0.0312 1.055,-0.6758 2.168,-0.0312 1.238,0.6562 2.473,2.3437 2.473,2.3554 0.144,0.1954 0.406,0.2422 0.586,0.0977 0.203,-0.1289 0.222,-0.3906 0.117,-0.5781 -0.07,-0.0782 -1.379,-1.875 -2.773,-2.6367 -0.52,-0.2657 -0.989,-0.379 -1.438,-0.379" /><path
         id="path98"
         style="fill:#181716;fill-opacity:1;fill-rule:nonzero;stroke:none"
         d="m 231.449,70.0117 c -0.379,0 -0.758,0 -1.136,0.0196 -4.571,0.3125 -6.641,2.3242 -6.723,2.4101 -0.176,0.1563 -0.176,0.4414 0,0.5859 0.172,0.168 0.43,0.168 0.582,0 0.023,-0.0078 1.973,-1.8671 6.195,-2.1484 4.406,-0.3047 9.469,1.3984 9.535,1.418 0.227,0.0859 0.457,-0.0391 0.52,-0.2656 0.086,-0.2227 -0.024,-0.4571 -0.266,-0.5391 -0.176,-0.0547 -4.48,-1.4805 -8.707,-1.4805" /><path
         id="path100"
         style="fill:#181716;fill-opacity:1;fill-rule:nonzero;stroke:none"
         d="m 232.41,66.8477 c -0.355,0 -0.699,0.0078 -1.047,0.0078 -4.894,0.1367 -7.398,2.3906 -7.515,2.4804 -0.176,0.168 -0.176,0.4414 -0.035,0.5977 0.187,0.1758 0.445,0.1836 0.621,0.0391 0.019,-0.0313 2.414,-2.1407 6.961,-2.2696 4.66,-0.164 8.261,0.8711 8.332,0.8828 0.207,0.0664 0.429,-0.0586 0.5,-0.2929 0.086,-0.2188 -0.071,-0.461 -0.278,-0.5196 -0.136,-0.039 -3.289,-0.9257 -7.539,-0.9257" /><path
         id="path102"
         style="fill:#181716;fill-opacity:1;fill-rule:nonzero;stroke:none"
         d="m 232.242,64.2695 c -4.222,0 -8.512,1.6211 -8.722,1.6875 -0.223,0.0899 -0.313,0.3438 -0.258,0.5586 0.09,0.2149 0.347,0.3203 0.551,0.2422 0.07,-0.0273 5.308,-1.9805 9.707,-1.5898 4.476,0.4297 6.05,0.789 6.089,0.8008 0.204,0.0664 0.43,-0.0782 0.496,-0.3125 0.051,-0.2266 -0.085,-0.4532 -0.292,-0.5079 -0.086,-0.0195 -1.668,-0.4023 -6.208,-0.8242 -0.429,-0.0156 -0.902,-0.0547 -1.363,-0.0547" /><path
         id="path104"
         style="fill:#181716;fill-opacity:1;fill-rule:nonzero;stroke:none"
         d="m 232.328,60.8594 c -0.496,0 -0.965,0.0195 -1.465,0.039 -4.742,0.3633 -7.742,2.2774 -7.894,2.3633 -0.203,0.1172 -0.227,0.3828 -0.11,0.586 0.11,0.1836 0.383,0.2539 0.579,0.1171 0.031,-0.0195 2.976,-1.8867 7.492,-2.2187 4.566,-0.3086 8.972,1.1641 9.019,1.1758 0.207,0.0664 0.449,-0.0508 0.531,-0.2656 0.086,-0.2227 -0.058,-0.4688 -0.253,-0.5391 -0.188,-0.0547 -3.762,-1.2578 -7.899,-1.2578" /><path
         id="path106"
         style="fill:#181716;fill-opacity:1;fill-rule:nonzero;stroke:none"
         d="m 226.383,71.1211 h -0.035 c -0.227,0.0312 -0.403,0.2266 -0.403,0.4609 l 0.785,12.7149 c 0,0.2265 0.204,0.4023 0.442,0.4023 0.23,-0.0117 0.402,-0.2148 0.402,-0.4531 l -0.781,-12.7148 c 0,-0.2305 -0.172,-0.4102 -0.41,-0.4102" /><path
         id="path108"
         style="fill:#181716;fill-opacity:1;fill-rule:nonzero;stroke:none"
         d="m 228.57,70.5977 v 0 c -0.257,0.0078 -0.445,0.1953 -0.41,0.4375 l 0.809,13.0078 c 0,0.2422 0.207,0.4218 0.445,0.3906 0.231,-0.0078 0.399,-0.2148 0.383,-0.4414 l -0.793,-13.0039 c -0.035,-0.2149 -0.203,-0.3906 -0.434,-0.3906" /><path
         id="path110"
         style="fill:#181716;fill-opacity:1;fill-rule:nonzero;stroke:none"
         d="m 231.105,70.2344 c 0,0 0,0 -0.035,0.0312 -0.226,0.0078 -0.41,0.2149 -0.379,0.4375 l 1.141,12.3321 c 0.027,0.2461 0.223,0.4218 0.465,0.4023 0.238,-0.0312 0.406,-0.2344 0.379,-0.4766 l -1.137,-12.3242 c -0.035,-0.2265 -0.207,-0.4023 -0.434,-0.4023" /><path
         id="path112"
         style="fill:#181716;fill-opacity:1;fill-rule:nonzero;stroke:none"
         d="m 234.625,70.2148 h -0.035 c -0.227,0.0118 -0.402,0.2149 -0.402,0.4493 l 0.785,10.5976 c 0,0.2422 0.203,0.3906 0.441,0.3906 0.227,-0.0117 0.402,-0.2148 0.402,-0.4414 l -0.781,-10.6132 c 0,-0.2266 -0.172,-0.3829 -0.41,-0.3829" /><path
         id="path114"
         style="fill:#181716;fill-opacity:1;fill-rule:nonzero;stroke:none"
         d="m 236.055,31.7852 c -0.203,0 -0.414,0.1796 -0.414,0.414 l -1.692,29.1485 c -0.019,0.2343 0.153,0.4296 0.383,0.4375 0.258,0.0312 0.441,-0.1524 0.465,-0.3868 l 1.687,-29.1406 c 0,-0.2265 -0.171,-0.4336 -0.398,-0.4726 0,0 0,0 -0.031,0" /><path
         id="path116"
         style="fill:#181716;fill-opacity:1;fill-rule:nonzero;stroke:none"
         d="m 241.063,54.1016 c -0.055,0 -0.118,0.0195 -0.184,0.0312 l -6.43,2.7539 c -0.207,0.086 -0.289,0.3399 -0.207,0.5547 0.09,0.2149 0.328,0.3242 0.555,0.2344 l 6.414,-2.7539 c 0.227,-0.086 0.312,-0.3516 0.227,-0.5469 -0.059,-0.1641 -0.227,-0.2734 -0.375,-0.2734" /><path
         id="path118"
         style="fill:#181716;fill-opacity:1;fill-rule:nonzero;stroke:none"
         d="m 240.625,52.0781 c -0.059,0 -0.117,0.0235 -0.145,0.0313 l -5.769,2.3242 c -0.207,0.0898 -0.316,0.3437 -0.231,0.5469 0.09,0.2148 0.348,0.332 0.555,0.2226 l 5.766,-2.3008 c 0.207,-0.0898 0.32,-0.3437 0.234,-0.5585 -0.09,-0.1563 -0.234,-0.2657 -0.41,-0.2657" /><path
         id="path120"
         style="fill:#181716;fill-opacity:1;fill-rule:nonzero;stroke:none"
         d="m 235.469,45.7813 c -0.117,0 -0.231,0.0585 -0.313,0.1484 -0.156,0.1641 -0.156,0.4375 0.02,0.5937 l 5.051,4.4844 c 0.171,0.1367 0.425,0.125 0.601,-0.039 0.141,-0.168 0.117,-0.4493 -0.058,-0.5977 l -5.008,-4.4805 c -0.086,-0.0703 -0.203,-0.1093 -0.293,-0.1093" /><path
         id="path122"
         style="fill:#181716;fill-opacity:1;fill-rule:nonzero;stroke:none"
         d="m 235.676,43.1133 c -0.117,0 -0.242,0.0508 -0.324,0.1601 -0.141,0.1758 -0.114,0.4258 0.062,0.5938 l 4.227,3.7617 c 0.172,0.1367 0.425,0.125 0.586,-0.0508 0.171,-0.1679 0.132,-0.4375 -0.039,-0.5937 l -4.219,-3.7617 c -0.09,-0.0664 -0.18,-0.1094 -0.293,-0.1094" /><path
         id="path124"
         style="fill:#181716;fill-opacity:1;fill-rule:nonzero;stroke:none"
         d="m 233.051,25.9688 c -0.203,0 -0.41,0.164 -0.41,0.4101 l -1.395,34.8516 c 0,0.2226 0.168,0.4297 0.41,0.4297 0.203,0.0312 0.434,-0.168 0.434,-0.3907 l 1.394,-34.8632 c 0,-0.2344 -0.171,-0.4375 -0.398,-0.4375 h -0.035" /><path
         id="path126"
         style="fill:#181716;fill-opacity:1;fill-rule:nonzero;stroke:none"
         d="m 229.211,29.0547 v 0 c -0.242,0 -0.41,0.1836 -0.41,0.4101 l 0.082,32.0274 c 0,0.2461 0.176,0.4336 0.414,0.4336 v 0 c 0.223,0 0.43,-0.1875 0.43,-0.4336 l -0.082,-32.0274 c 0,-0.2265 -0.211,-0.4101 -0.434,-0.4101" /><path
         id="path128"
         style="fill:#181716;fill-opacity:1;fill-rule:nonzero;stroke:none"
         d="m 227.313,30.3047 v 0 c -0.227,0 -0.434,0.2031 -0.434,0.4375 l 0.055,31.0039 c 0,0.2383 0.175,0.4219 0.41,0.4219 v 0 c 0.23,0 0.433,-0.1836 0.433,-0.4219 l -0.05,-31.0039 c 0,-0.2344 -0.176,-0.4375 -0.414,-0.4375" /><path
         id="path130"
         style="fill:#181716;fill-opacity:1;fill-rule:nonzero;stroke:none"
         d="m 254.863,82.7031 c -0.222,0 -0.398,0.1992 -0.398,0.4219 0,1.2695 -2.735,8.6992 -4.516,13.6211 -0.789,2.1719 -1.48,4.0349 -1.773,4.9339 -0.071,0.226 0.047,0.449 0.254,0.527 0.23,0.078 0.465,-0.039 0.554,-0.254 0.293,-0.887 0.965,-2.7616 1.746,-4.9217 2.512,-6.8282 4.583,-12.5977 4.583,-13.9063 0,-0.2227 -0.208,-0.4219 -0.45,-0.4219" /><path
         id="path132"
         style="fill:#181716;fill-opacity:1;fill-rule:nonzero;stroke:none"
         d="m 261.277,22.3828 c 0.227,-0.0586 0.637,-0.1172 1.106,-0.1172 0.586,0 1.394,0.1172 1.805,0.6172 0.351,0.457 0.429,2.5977 0.5,4.461 0.085,2.5 0.195,5.3515 0.925,6.8359 1.7,3.3086 5.246,12.1875 4.895,17.0703 -0.059,1.1055 -0.176,2.2578 -0.266,3.3906 -0.34,4.3907 -0.672,8.5039 -0.262,10.2149 0.469,1.9922 0.379,12.6328 -6.171,14.9687 -2.571,0.918 -4.395,1.336 -5.774,1.336 -2.703,0 -3.953,-1.6368 -4.324,-5.6797 -0.645,-6.5547 -0.828,-7.375 -0.828,-7.4532 -0.024,-0.0664 -0.051,-0.1054 -0.09,-0.1562 -1.016,-1.3086 0.039,-2.3828 0.09,-2.4414 0.152,-0.1563 0.183,-0.3906 0.039,-0.5664 -1.113,-1.3164 -0.039,-2.3906 0,-2.4297 0.144,-0.1367 0.164,-0.3242 0.074,-0.4883 -0.976,-1.8945 0.129,-3.0469 0.156,-3.0664 0.063,-0.0586 0.09,-0.1094 0.11,-0.1953 0.027,-0.1875 0.968,-4.4375 -0.02,-16.2813 -0.32,-3.6132 -0.676,-6.6601 -0.929,-9.1289 -0.418,-3.6328 -0.797,-7.0742 -0.36,-7.3945 0.547,0.1484 0.879,0.4688 1.223,0.8203 0.445,0.4688 0.965,0.9883 1.844,0.9883 0.632,0 1.359,-0.293 2.277,-0.8516 2.516,-1.5625 3.484,-3.457 3.894,-4.2773 0.032,-0.0586 0.047,-0.1484 0.086,-0.1758 z m 1.106,-0.957 c -0.781,0 -1.399,0.1367 -1.438,0.1367 v 0.0391 c -0.254,0.0507 -0.371,0.2929 -0.515,0.5859 -0.379,0.7539 -1.25,2.5 -3.582,3.9258 -0.754,0.4883 -1.368,0.7226 -1.828,0.7226 -0.5,0 -0.79,-0.2812 -1.231,-0.7226 -0.41,-0.4102 -0.82,-0.8399 -1.516,-1.0156 -0.339,-0.1172 -0.718,-0.0274 -0.964,0.2265 -0.664,0.7617 -0.411,3.0664 0.156,8.0547 0.265,2.4492 0.605,5.5 0.93,9.1016 0.894,10.7148 0.195,15.207 0.054,15.9101 -0.32,0.3789 -1.219,1.6992 -0.32,3.6797 -0.488,0.625 -0.899,1.7891 -0.09,3.0469 -0.484,0.6836 -0.894,1.9141 0.031,3.2031 0.059,0.3008 0.266,1.711 0.789,7.2461 0.403,4.4649 2.004,6.4453 5.176,6.4453 1.496,0 3.379,-0.4179 6.067,-1.3984 7.16,-2.5547 7.226,-13.7578 6.699,-15.957 -0.379,-1.5704 -0.031,-5.836 0.285,-9.9375 0.086,-1.1446 0.176,-2.3086 0.262,-3.4102 0.41,-5.6133 -3.809,-15.2344 -4.969,-17.5 -0.676,-1.3203 -0.766,-4.082 -0.844,-6.5039 -0.097,-2.6563 -0.183,-4.2774 -0.672,-4.9492 -0.5,-0.6172 -1.347,-0.9297 -2.48,-0.9297" /><path
         id="path134"
         style="fill:#181716;fill-opacity:1;fill-rule:nonzero;stroke:none"
         d="m 255.945,18.3906 c -1.132,0 -2.476,0.0586 -4.082,0.1758 -3.98,0.293 -5.125,1.6875 -5.379,2.793 -0.293,1.3437 0.633,2.6562 1.399,3.0664 0.722,0.4375 1.277,0.3515 1.719,0.2617 0.398,-0.0859 0.664,-0.1172 1.128,0.2227 0.168,0.1211 0.442,0.1015 0.579,-0.086 0.156,-0.1953 0.129,-0.4609 -0.079,-0.5781 -0.761,-0.5742 -1.347,-0.4961 -1.777,-0.4063 -0.41,0.086 -0.691,0.125 -1.172,-0.1406 -0.468,-0.2422 -1.164,-1.1992 -0.957,-2.1679 0.266,-1.1602 1.887,-1.9141 4.629,-2.1172 6.582,-0.5274 8.621,0.2539 9.5,0.6172 l 0.117,0.0195 c 0.371,0.1523 0.957,0.1172 1.985,0 0.984,-0.0899 2.824,-0.2539 2.91,0.2734 0.176,0.9453 -0.969,5.3321 -1.719,7.8594 -0.058,0.207 0.051,0.4297 0.293,0.5156 0.203,0.0703 0.457,-0.0469 0.52,-0.2929 0.203,-0.6915 2.007,-6.7735 1.754,-8.2032 -0.211,-1.3437 -2.223,-1.1406 -3.844,-0.9648 -0.617,0.0586 -1.379,0.1172 -1.582,0.0312 l -0.11,-0.0312 c -0.793,-0.293 -2.187,-0.8477 -5.832,-0.8477" /><path
         id="path136"
         style="fill:#181716;fill-opacity:1;fill-rule:nonzero;stroke:none"
         d="m 261.121,67.3633 c -3.863,0 -8.433,0.332 -8.699,0.3398 -0.234,0.0313 -0.402,0.2188 -0.383,0.4727 0.031,0.2148 0.234,0.3711 0.461,0.3711 0.066,0 8.254,-0.586 12.004,-0.2071 3.738,0.3711 5.809,1.1836 5.809,1.2032 0.222,0.0859 0.457,-0.0196 0.546,-0.2344 0.086,-0.2148 0,-0.4688 -0.234,-0.5586 -0.09,-0.0273 -2.156,-0.8672 -6.035,-1.25 -0.945,-0.0898 -2.18,-0.1367 -3.469,-0.1367" /><path
         id="path138"
         style="fill:#181716;fill-opacity:1;fill-rule:nonzero;stroke:none"
         d="m 260.84,64.0625 c -3.938,0 -8.098,0.6172 -8.301,0.6641 -0.226,0.0195 -0.41,0.2343 -0.383,0.4765 0.071,0.2266 0.266,0.3828 0.5,0.3438 0.047,-0.0117 7.024,-1.0235 11.297,-0.4688 4.289,0.5469 6.469,0.9375 6.496,0.9375 0.242,0.0391 0.43,-0.1172 0.496,-0.3515 0.032,-0.2149 -0.117,-0.4297 -0.34,-0.4688 -0.039,-0.0273 -2.226,-0.3984 -6.535,-0.9375 -0.984,-0.1367 -2.129,-0.1953 -3.23,-0.1953" /><path
         id="path140"
         style="fill:#181716;fill-opacity:1;fill-rule:nonzero;stroke:none"
         d="m 263.469,61.5313 c -4.524,0 -10.781,0.1679 -10.84,0.1679 -0.234,0.0313 -0.402,0.2149 -0.402,0.4492 0,0.2227 0.168,0.4024 0.429,0.4024 0.047,0 7.61,-0.1875 12.051,-0.168 4.207,0.0391 5.195,0.6524 5.195,0.6524 0.203,0.1093 0.43,0.0703 0.578,-0.1055 0.125,-0.1875 0.086,-0.4414 -0.082,-0.5859 -0.171,-0.125 -1.226,-0.7618 -5.652,-0.8008 -0.422,0 -0.851,-0.0117 -1.277,-0.0117" /><path
         id="path142"
         style="fill:#181716;fill-opacity:1;fill-rule:nonzero;stroke:none"
         d="m 262.559,58.1641 c -5.657,0 -9.856,0.3828 -9.871,0.3828 -0.239,0.0195 -0.415,0.2226 -0.375,0.457 0.023,0.2344 0.226,0.4102 0.46,0.3828 0.02,-0.0117 4.161,-0.3828 9.786,-0.3828 3.957,0 6.32,0.5274 7.05,0.7422 0.032,0.0391 0.079,0.0898 0.164,0.0977 0.161,0.039 0.415,0.0976 0.586,-0.1172 0.09,-0.1172 0.121,-0.3125 0.063,-0.4493 -0.234,-0.5078 -3.781,-1.1132 -7.863,-1.1132" /><path
         id="path144"
         style="fill:#181716;fill-opacity:1;fill-rule:nonzero;stroke:none"
         d="m 254.402,67.5391 c 0,0 -0.027,0 -0.054,0 -0.239,0.039 -0.383,0.2539 -0.356,0.4882 l 1.723,13.1329 c 0.027,0.2382 0.23,0.3945 0.496,0.3632 0.234,-0.0195 0.383,-0.2539 0.344,-0.4765 l -1.711,-13.1367 c -0.031,-0.2149 -0.235,-0.3711 -0.442,-0.3711" /><path
         id="path146"
         style="fill:#181716;fill-opacity:1;fill-rule:nonzero;stroke:none"
         d="m 257.02,67.7031 c 0,0 -0.016,0 -0.055,0.0235 -0.207,0.0156 -0.371,0.2226 -0.344,0.4687 l 1.692,13.3985 c 0.015,0.2226 0.222,0.3984 0.464,0.3515 0.227,-0.0195 0.403,-0.2344 0.371,-0.4805 l -1.687,-13.3789 c -0.027,-0.2148 -0.234,-0.3828 -0.441,-0.3828" /><path
         id="path148"
         style="fill:#181716;fill-opacity:1;fill-rule:nonzero;stroke:none"
         d="m 259.727,67.5391 c 0,0 -0.02,0 -0.047,0 -0.246,0.039 -0.383,0.2539 -0.356,0.4687 l 1.692,13.0664 c 0.019,0.2344 0.222,0.4102 0.468,0.3633 0.227,-0.0195 0.403,-0.2461 0.379,-0.4687 l -1.687,-13.0586 c -0.039,-0.2149 -0.242,-0.3711 -0.449,-0.3711" /><path
         id="path150"
         style="fill:#181716;fill-opacity:1;fill-rule:nonzero;stroke:none"
         d="m 262.727,67.5391 c 0,0 -0.024,0 -0.051,0 -0.203,0.039 -0.379,0.2422 -0.352,0.4687 l 1.426,11.9649 c 0.027,0.2304 0.234,0.3984 0.469,0.3711 0.234,-0.0196 0.398,-0.2344 0.371,-0.4805 l -1.414,-11.9531 c -0.039,-0.2071 -0.246,-0.3711 -0.449,-0.3711" /><path
         id="path152"
         style="fill:#181716;fill-opacity:1;fill-rule:nonzero;stroke:none"
         d="m 265.703,67.6875 c -0.027,0 -0.027,0 -0.058,0 -0.235,0.0156 -0.403,0.2227 -0.379,0.457 l 1.199,10.0391 c 0.019,0.2461 0.223,0.4297 0.469,0.3828 0.222,-0.0195 0.402,-0.2266 0.379,-0.4609 l -1.208,-10.0703 c -0.019,-0.211 -0.199,-0.3477 -0.402,-0.3477" /><path
         id="path154"
         style="fill:#181716;fill-opacity:1;fill-rule:nonzero;stroke:none"
         d="m 265.156,27.5703 c -0.246,0 -0.41,0.1719 -0.449,0.4102 l -0.519,30.4258 c -0.028,0.246 0.175,0.4335 0.402,0.4335 0.273,0 0.41,-0.1796 0.449,-0.4023 l 0.52,-30.4297 c 0.027,-0.2344 -0.176,-0.4375 -0.403,-0.4375 v 0" /><path
         id="path156"
         style="fill:#181716;fill-opacity:1;fill-rule:nonzero;stroke:none"
         d="m 262.156,21.7773 c -0.242,0 -0.445,0.2071 -0.445,0.4297 l -0.316,36.1993 c 0,0.246 0.175,0.4335 0.402,0.4335 v 0 c 0.234,0 0.437,-0.1875 0.437,-0.4335 l 0.325,-36.1993 c 0,-0.2226 -0.176,-0.3984 -0.403,-0.4297" /><path
         id="path158"
         style="fill:#181716;fill-opacity:1;fill-rule:nonzero;stroke:none"
         d="m 258.977,24.8633 v 0 c -0.239,0 -0.442,0.207 -0.414,0.4297 l 0.148,33.3515 c 0,0.2227 0.203,0.4102 0.437,0.4102 v 0 c 0.239,0 0.403,-0.1953 0.403,-0.4102 L 259.387,25.293 c 0,-0.2227 -0.176,-0.4297 -0.41,-0.4297" /><path
         id="path160"
         style="fill:#181716;fill-opacity:1;fill-rule:nonzero;stroke:none"
         d="m 255.242,32.0781 v 0 c -0.222,0.0391 -0.398,0.2071 -0.398,0.4414 l 0.636,26.25 c 0,0.2227 0.145,0.4024 0.399,0.4024 0.242,0 0.449,-0.1875 0.449,-0.4219 l -0.637,-26.2305 c 0,-0.2343 -0.211,-0.4414 -0.449,-0.4414" /><path
         id="path162"
         style="fill:#181716;fill-opacity:1;fill-rule:nonzero;stroke:none"
         d="m 251.934,31.9922 c -0.246,0 -0.45,0.207 -0.45,0.4414 0,0.2344 0.176,0.4102 0.411,0.4102 l 6.933,0.1367 h 0.027 c 0.239,0 0.415,-0.1992 0.415,-0.4024 0,-0.2343 -0.176,-0.4375 -0.415,-0.4375 l -6.921,-0.1484 v 0" /><path
         id="path164"
         style="fill:#181716;fill-opacity:1;fill-rule:nonzero;stroke:none"
         d="m 270.742,50.7617 c -0.09,0 -0.137,0.0313 -0.207,0.0508 L 265,53.5273 c -0.203,0.0938 -0.293,0.3516 -0.203,0.5547 0.113,0.2149 0.379,0.3047 0.586,0.1953 l 5.535,-2.7148 c 0.203,-0.0977 0.293,-0.3398 0.203,-0.5547 -0.086,-0.1562 -0.242,-0.2461 -0.379,-0.2461" /><path
         id="path166"
         style="fill:#181716;fill-opacity:1;fill-rule:nonzero;stroke:none"
         d="m 270.313,48.7813 c -0.071,0 -0.125,0.0273 -0.176,0.039 l -5.364,2.5 c -0.234,0.086 -0.32,0.3594 -0.203,0.5664 0.086,0.2149 0.34,0.3008 0.547,0.1914 l 5.363,-2.5 c 0.211,-0.0937 0.321,-0.3398 0.211,-0.5547 -0.066,-0.1445 -0.242,-0.2421 -0.378,-0.2421" /><path
         id="path168"
         style="fill:#181716;fill-opacity:1;fill-rule:nonzero;stroke:none"
         d="m 265.066,42.5703 c -0.156,0 -0.32,0.1055 -0.378,0.2422 -0.118,0.2148 0,0.4688 0.195,0.5781 l 5.051,2.2149 c 0.203,0.1172 0.464,0 0.546,-0.2032 0.086,-0.2148 0,-0.4609 -0.207,-0.5585 l -5.031,-2.2344 c -0.066,-0.0196 -0.125,-0.0391 -0.176,-0.0391" /><path
         id="path170"
         style="fill:#181716;fill-opacity:1;fill-rule:nonzero;stroke:none"
         d="m 265.039,39.6992 c -0.156,0 -0.293,0.0781 -0.383,0.2031 -0.117,0.2071 -0.066,0.4688 0.141,0.586 l 4.391,2.6172 c 0.214,0.1172 0.468,0.0586 0.585,-0.1367 0.129,-0.2032 0.071,-0.4688 -0.132,-0.586 l -4.399,-2.6172 c -0.066,-0.0468 -0.152,-0.0664 -0.203,-0.0664" /><path
         id="path172"
         style="fill:#181716;fill-opacity:1;fill-rule:nonzero;stroke:none"
         d="m 268.914,98.7109 c -0.406,0 -0.586,0.2149 -0.652,0.3516 -0.047,0.1563 -0.176,0.4492 0.703,1.4645 -1.262,-0.5856 -1.516,-0.293 -1.629,-0.136 -0.148,0.136 -0.441,0.476 0.406,1.867 -0.515,-0.352 -1.012,-0.578 -1.394,-0.578 h -0.039 c -0.164,0 -0.75,0.019 -0.989,0.468 -0.281,0.567 0.215,1.301 1.075,2.637 0.363,0.52 0.761,1.153 1.171,1.856 1.02,1.613 1.575,3.293 1.836,4.355 -1.316,-1.023 -3.757,-2.734 -5.418,-2.754 -0.031,0 -0.031,0 -0.031,0 -0.437,0 -0.574,0.215 -0.64,0.363 -0.176,0.508 0.292,0.907 2.39,2.5 2.449,1.883 6.145,4.735 6.961,7.157 0.063,0.215 0.285,0.332 0.527,0.254 0.227,-0.067 0.344,-0.321 0.254,-0.536 -0.894,-2.667 -4.715,-5.585 -7.215,-7.539 -0.554,-0.421 -1.164,-0.89 -1.574,-1.242 1.782,0.5 4.223,2.403 5.117,3.196 0.129,0.117 0.332,0.136 0.469,0.046 0.156,-0.078 0.238,-0.242 0.238,-0.418 -0.031,-0.117 -0.414,-3 -2.191,-5.832 -0.406,-0.711 -0.84,-1.328 -1.187,-1.875 -0.461,-0.711 -0.997,-1.503 -1.016,-1.765 0.019,0 0.105,-0.031 0.262,-0.031 v 0 c 0.722,0 2.59,1.64 4.304,3.378 0.52,0.606 1.145,1.258 1.836,1.985 0.176,0.176 0.442,0.176 0.586,0.039 0.168,-0.168 0.207,-0.434 0.051,-0.598 -0.281,-0.301 -0.93,-1.043 -1.746,-1.863 -1.691,-1.895 -3.117,-3.742 -3.344,-4.434 0.813,0.203 3.227,1.875 5.528,3.711 0.382,0.301 0.792,0.614 1.234,0.946 0.176,0.156 0.43,0.117 0.586,-0.047 0.137,-0.196 0.105,-0.461 -0.07,-0.598 -0.43,-0.371 -0.872,-0.703 -1.243,-1.008 -2.066,-1.707 -4.05,-3.472 -4.754,-4.3435 2.395,0.8715 7.664,5.3715 9.961,8.0275 1.985,2.285 0.34,4.101 -0.605,5.195 l -0.156,0.149 c -1.512,1.687 0.808,4.89 2.922,7.734 0.75,1.055 1.484,2.039 1.804,2.715 2.071,4.14 0.781,13.262 0.75,13.347 -0.027,0.223 0.149,0.461 0.383,0.481 0.195,0.035 0.438,-0.117 0.469,-0.352 0.058,-0.39 1.328,-9.472 -0.852,-13.859 -0.347,-0.73 -1.043,-1.699 -1.89,-2.832 -1.692,-2.313 -4.016,-5.488 -2.942,-6.672 l 0.149,-0.164 c 0.984,-1.113 3.086,-3.437 0.601,-6.301 -2.351,-2.711 -8.406,-8.0154 -10.801,-8.4333 -0.086,0 -0.144,-0.0118 -0.195,-0.0118" /><path
         id="path174"
         style="fill:#181716;fill-opacity:1;fill-rule:nonzero;stroke:none"
         d="m 275.754,104.297 c -0.09,0 -0.207,0.039 -0.285,0.117 -0.559,0.52 -5.403,5.051 -4.297,7.383 1.055,2.09 2.715,4.219 2.773,4.308 0.149,0.176 0.41,0.215 0.586,0.067 0.196,-0.145 0.227,-0.399 0.086,-0.598 -0.027,-0.008 -1.687,-2.136 -2.652,-4.148 -0.637,-1.317 2.156,-4.641 4.07,-6.387 0.188,-0.168 0.188,-0.43 0.039,-0.594 -0.09,-0.09 -0.207,-0.148 -0.32,-0.148" /><path
         id="path176"
         style="fill:#181716;fill-opacity:1;fill-rule:nonzero;stroke:none"
         d="m 277.031,104.445 c -0.207,0 -0.371,0.125 -0.41,0.332 -0.84,3.985 -1.516,4.754 -4.891,7.313 -0.175,0.129 -0.199,0.398 -0.058,0.566 0.125,0.196 0.418,0.246 0.586,0.086 3.496,-2.613 4.312,-3.57 5.191,-7.808 0.051,-0.227 -0.094,-0.45 -0.332,-0.489 -0.027,0 -0.047,0 -0.086,0" /><path
         id="path178"
         style="fill:#181716;fill-opacity:1;fill-rule:nonzero;stroke:none"
         d="m 279.043,106.465 c 0,0 -0.027,0 -0.059,0 -0.222,0.039 -0.379,0.265 -0.339,0.488 0.398,2.285 -3.04,6.289 -4.954,7.93 -0.207,0.156 -0.207,0.422 -0.07,0.597 0.156,0.165 0.41,0.204 0.59,0.047 1.949,-1.64 5.769,-5.918 5.269,-8.711 -0.066,-0.214 -0.234,-0.351 -0.437,-0.351" /><path
         id="path180"
         style="fill:#181716;fill-opacity:1;fill-rule:nonzero;stroke:none"
         d="m 273.652,138.66 c -0.168,0 -0.339,0.121 -0.41,0.293 l -3.601,11.36 c -0.071,0.234 0.047,0.468 0.293,0.539 0.203,0.066 0.464,-0.051 0.515,-0.286 l 3.621,-11.375 c 0.051,-0.214 -0.066,-0.441 -0.293,-0.507 -0.039,-0.024 -0.086,-0.024 -0.125,-0.024" /><path
         id="path182"
         style="fill:#181716;fill-opacity:1;fill-rule:nonzero;stroke:none"
         d="m 270.48,63.4766 c -0.121,0 -0.238,0.0507 -0.292,0.1367 -0.168,0.1562 -0.168,0.418 0,0.5976 0,0.0274 1.074,1.4532 2.156,10.8672 1.14,9.8438 2.273,26.1719 2.273,26.3399 0.024,0.242 0.227,0.398 0.473,0.398 0.223,-0.019 0.398,-0.222 0.379,-0.449 0,-0.176 -1.172,-16.5232 -2.278,-26.3943 -1.14,-9.8243 -2.312,-11.2344 -2.421,-11.3594 -0.079,-0.086 -0.165,-0.1367 -0.29,-0.1367" /><path
         id="path184"
         style="fill:#ffffff;fill-opacity:1;fill-rule:evenodd;stroke:none"
         d="m 245,114.617 c 0,0 3.469,5.664 0.781,19.653 -2.656,13.925 -2.453,25.218 -2.453,25.218 0,0 4.863,-11.91 11.711,-18.043 6.902,-6.179 -6.672,-23.965 -10.039,-26.828 v 0" /><path
         id="path186"
         style="fill:#ffffff;fill-opacity:1;fill-rule:evenodd;stroke:none"
         d="m 177.855,105.859 1.458,-0.379 c 0,0 0.062,0 0.062,-0.039 L 179.02,24.7383 c 0,0 0,0 0,-0.0195 l -1.332,-0.7032 v 0 l 0.167,81.8434 v 0 0" /><path
         id="path188"
         style="fill:#ffffff;fill-opacity:1;fill-rule:evenodd;stroke:none"
         d="m 186.039,105.988 1.488,-0.422 h 0.028 l -0.407,-78.398 -0.035,-0.0664 -1.308,-0.293 h -0.059 l 0.293,79.1404 v 0.039 0" /><path
         id="path190"
         style="fill:#ffffff;fill-opacity:1;fill-rule:evenodd;stroke:none"
         d="m 193.113,106.785 1.457,-0.418 h 0.063 l -0.528,-77.1287 h -0.023 l -1.312,-0.4492 c 0,0 0,0 0,0.0703 l 0.343,77.8866 v 0.039 0" /><path
         id="path192"
         style="fill:#181716;fill-opacity:1;fill-rule:nonzero;stroke:none"
         d="m 177.039,23.6328 v 0 c -0.23,0 -0.434,0.207 -0.406,0.4414 0.027,7.625 0.293,81.8048 0.293,82.5668 0,0.105 0.054,0.222 0.144,0.312 0.086,0.078 0.235,0.117 0.348,0.09 l 3.266,-0.645 c 0.199,-0.031 0.347,-0.207 0.316,-0.41 l -0.758,-81.1638 c 0,-0.2226 -0.168,-0.4297 -0.402,-0.4297 v 0 c -0.235,0 -0.442,0.2071 -0.442,0.4297 l 0.758,80.8208 -2.386,0.46 c -0.032,-6.6011 -0.266,-74.7183 -0.293,-82.0308 0,-0.2344 -0.207,-0.4414 -0.438,-0.4414" /><path
         id="path194"
         style="fill:#181716;fill-opacity:1;fill-rule:nonzero;stroke:none"
         d="m 185.281,25.793 v 0 c -0.226,0 -0.41,0.2031 -0.41,0.4375 0.031,14.1797 0.293,80.5545 0.293,80.5545 0,0.149 0.063,0.258 0.149,0.332 0.085,0.082 0.234,0.121 0.347,0.082 l 3.266,-0.625 c 0.199,-0.043 0.347,-0.215 0.347,-0.422 l -0.789,-78.7575 c 0,-0.2265 -0.171,-0.4101 -0.402,-0.4101 -0.293,0 -0.441,0.1836 -0.441,0.4101 l 0.757,78.4255 -2.386,0.461 c -0.028,-6.183 -0.266,-66.5935 -0.293,-80.0505 0,-0.2344 -0.199,-0.4375 -0.438,-0.4375" /><path
         id="path196"
         style="fill:#181716;fill-opacity:1;fill-rule:nonzero;stroke:none"
         d="m 192.27,27.8242 v 0 c -0.231,0 -0.434,0.1836 -0.434,0.418 0.062,16.5625 0.289,79.4338 0.289,79.4338 0,0.148 0.063,0.254 0.18,0.332 0.09,0.078 0.199,0.117 0.347,0.078 l 3.231,-0.625 c 0.207,-0.039 0.351,-0.215 0.351,-0.418 l -0.73,-77.961 c 0,-0.2226 -0.172,-0.4101 -0.406,-0.4101 v 0 c -0.235,0 -0.442,0.1875 -0.442,0.4101 l 0.735,77.617 -2.422,0.469 c -0.024,-6.008 -0.258,-63.2227 -0.281,-78.9258 0,-0.2344 -0.184,-0.418 -0.418,-0.418" /><path
         id="path198"
         style="fill:#181716;fill-opacity:1;fill-rule:nonzero;stroke:none"
         d="m 185.195,106.66 c -0.234,0 -0.41,0.195 -0.41,0.418 v 1.731 l -3.93,0.168 v -1.758 c 0,-0.235 -0.207,-0.434 -0.433,-0.434 -0.234,0 -0.41,0.199 -0.41,0.434 v 2.195 c 0,0.117 0.027,0.227 0.117,0.313 0.082,0.07 0.203,0.109 0.32,0.109 l 4.778,-0.219 c 0.234,0 0.41,-0.183 0.41,-0.418 v -2.121 c 0,-0.223 -0.211,-0.418 -0.442,-0.418" /><path
         id="path200"
         style="fill:#181716;fill-opacity:1;fill-rule:nonzero;stroke:none"
         d="m 192.395,107.168 c -0.239,0 -0.442,0.195 -0.442,0.422 v 1.719 l -3.93,0.164 v -1.746 c 0,-0.239 -0.175,-0.411 -0.406,-0.411 -0.234,0 -0.437,0.172 -0.437,0.411 v 2.207 c 0,0.105 0.054,0.214 0.144,0.3 0.082,0.071 0.203,0.118 0.317,0.118 l 4.777,-0.223 c 0.203,-0.012 0.379,-0.188 0.379,-0.422 v -2.117 c 0,-0.227 -0.176,-0.422 -0.402,-0.422" /><path
         id="path202"
         style="fill:#181716;fill-opacity:1;fill-rule:nonzero;stroke:none"
         d="m 154.285,16.8555 c -0.168,0 -0.34,0.1093 -0.402,0.2851 -0.059,0.2305 0.062,0.4688 0.293,0.5274 l 63.847,18.5039 c 0.235,0.0781 0.461,-0.0508 0.528,-0.2813 0.054,-0.2265 -0.067,-0.4609 -0.293,-0.5273 L 154.41,16.8555 c -0.031,0 -0.09,0 -0.125,0" /><path
         id="path204"
         style="fill:#181716;fill-opacity:1;fill-rule:nonzero;stroke:none"
         d="m 185.344,104.934 c -0.031,0 -0.031,0 -0.031,0 l -4.43,0.125 c -0.235,0.019 -0.434,0.207 -0.403,0.437 0,0.238 0.145,0.442 0.438,0.402 l 4.426,-0.125 c 0.226,0 0.402,-0.187 0.402,-0.421 0,-0.223 -0.199,-0.418 -0.402,-0.418" /><path
         id="path206"
         style="fill:#181716;fill-opacity:1;fill-rule:nonzero;stroke:none"
         d="m 192.563,105.625 h -0.024 l -3.879,0.129 c -0.23,0 -0.433,0.184 -0.406,0.418 0,0.226 0.176,0.391 0.437,0.402 l 3.872,-0.109 c 0.234,-0.02 0.441,-0.203 0.406,-0.438 0,-0.234 -0.172,-0.402 -0.406,-0.402" /><path
         id="path208"
         style="fill:#100f0d;fill-opacity:1;fill-rule:nonzero;stroke:none"
         d="m 284.98,130.996 c -0.222,0 -0.41,0.176 -0.429,0.402 -0.031,0.223 0.137,0.426 0.383,0.438 50.039,4.973 100.894,16.437 151.171,34.133 0.223,0.066 0.458,-0.047 0.543,-0.262 0.063,-0.223 -0.027,-0.453 -0.253,-0.539 -50.36,-17.719 -101.278,-29.211 -151.375,-34.152 0,-0.02 -0.04,-0.02 -0.04,-0.02 z m -12.89,-1.094 c -0.242,0 -0.418,0.188 -0.418,0.403 -0.031,0.222 0.152,0.429 0.379,0.437 l 5.129,0.379 c 0.23,0 0.41,-0.144 0.437,-0.387 0.028,-0.226 -0.144,-0.429 -0.383,-0.453 l -5.125,-0.379 z m -42.5,-1.66 c -91.699,0 -147.9103,23.086 -148.5236,23.34 -0.207,0.078 -0.3203,0.332 -0.207,0.547 0.0937,0.215 0.3203,0.312 0.5547,0.215 0.6132,-0.254 63.0629,-25.86 163.6909,-23.035 0.208,-0.012 0.415,-0.176 0.415,-0.403 0.027,-0.234 -0.176,-0.418 -0.415,-0.449 -5.269,-0.137 -10.449,-0.215 -15.515,-0.215" /><path
         id="path210"
         style="fill:#100f0d;fill-opacity:1;fill-rule:nonzero;stroke:none"
         d="m 280.039,117.102 c -0.242,0 -0.422,0.164 -0.437,0.398 0,0.227 0.171,0.441 0.398,0.449 57.676,4.317 112.234,16.985 162.117,37.664 0.246,0.09 0.481,-0.015 0.571,-0.23 0.085,-0.227 0,-0.461 -0.239,-0.559 C 392.461,134.113 337.82,121.426 280.066,117.102 Z m -44.883,-1.661 c -115.176,0 -202.2966,32.11 -203.2029,32.45 -0.1953,0.078 -0.3164,0.324 -0.2304,0.539 0.0898,0.215 0.3164,0.34 0.5234,0.254 0.9336,-0.332 92.3089,-34.004 211.4919,-32.325 0.239,-0.05 0.442,-0.199 0.442,-0.429 0,-0.235 -0.176,-0.422 -0.403,-0.422 -2.898,-0.039 -5.781,-0.067 -8.621,-0.067" /><path
         id="path212"
         style="fill:#100f0d;fill-opacity:1;fill-rule:nonzero;stroke:none"
         d="m 177.395,93.9453 c -0.036,0 -0.036,0 -0.036,0 -81.3512,6.3207 -133.1988,23.0587 -133.7223,23.2227 -0.1992,0.078 -0.3203,0.312 -0.2578,0.535 0.082,0.219 0.3164,0.356 0.5234,0.266 0.5196,-0.164 52.2852,-16.864 133.5157,-23.1721 0.234,-0.0196 0.414,-0.2266 0.379,-0.4492 0,-0.2149 -0.203,-0.4024 -0.402,-0.4024 z m 97.046,-1.6484 c -0.203,0 -0.41,0.1836 -0.41,0.4179 -0.027,0.2344 0.18,0.4219 0.41,0.4297 50.102,2.1602 99.993,8.9845 148.313,20.3125 0.242,0.051 0.437,-0.078 0.5,-0.312 0.059,-0.235 -0.09,-0.45 -0.324,-0.508 C 374.578,101.289 324.617,94.4531 274.473,92.2969 Z m -40.402,-0.7422 c 0,0 0,0 -0.019,0 -13.551,0.125 -26.422,0.5156 -38.278,1.1719 -0.238,0.0156 -0.41,0.2226 -0.383,0.4492 0,0.2422 0.207,0.3789 0.438,0.3906 11.824,-0.6445 24.699,-1.0351 38.242,-1.1719 0.238,0 0.41,-0.207 0.41,-0.4414 0,-0.2226 -0.172,-0.3984 -0.41,-0.3984" /><path
         id="path214"
         style="fill:#100f0d;fill-opacity:1;fill-rule:nonzero;stroke:none"
         d="m 177.395,88.0742 c -0.036,0 -0.036,0 -0.067,0 -83.3007,6.8281 -134.0116,23.7348 -134.535,23.9098 -0.1992,0.067 -0.3242,0.301 -0.2617,0.528 0.0859,0.215 0.3203,0.34 0.5546,0.261 0.4883,-0.164 51.1407,-17.0503 134.3321,-23.855 0.234,-0.0196 0.414,-0.2266 0.379,-0.461 0,-0.2148 -0.203,-0.3828 -0.402,-0.3828 z m 96.636,-2.4765 c -0.23,0 -0.426,0.1757 -0.426,0.3984 0,0.2344 0.172,0.4219 0.399,0.4414 58.113,1.6367 117.031,8.9844 175.144,21.8245 0.207,0.051 0.43,-0.098 0.493,-0.313 0.066,-0.234 -0.09,-0.461 -0.317,-0.508 C 391.152,94.6016 332.207,87.2266 274.031,85.5977 Z m -42.41,-0.2266 v 0 c -11.531,0.1953 -23.269,0.6562 -35.879,1.3984 -0.238,0.0157 -0.41,0.2227 -0.383,0.4493 0,0.2421 0.207,0.3906 0.438,0.3906 12.609,-0.7344 24.324,-1.1914 35.824,-1.3985 0.238,0 0.434,-0.1836 0.414,-0.4179 0,-0.2266 -0.176,-0.4219 -0.414,-0.4219" /><path
         id="path216"
         style="fill:#100f0d;fill-opacity:1;fill-rule:nonzero;stroke:none"
         d="m 177.246,64.3633 v 0 c -81.5312,1.25 -141.0663,1.8594 -142.4882,1.7812 -0.2344,0.0157 -0.4414,0.1836 -0.4414,0.4102 -0.0312,0.2422 0.1758,0.4297 0.4063,0.4375 1.6875,0.0859 63.5,-0.5664 142.5473,-1.7774 0.234,0 0.418,-0.1835 0.418,-0.4179 0,-0.2344 -0.211,-0.4336 -0.442,-0.4336 z m 45.668,-0.75 v 0 l -1.168,0.0195 c -8.933,0.1758 -17.73,0.3125 -26.355,0.4414 -0.235,0 -0.442,0.1953 -0.442,0.4297 0.035,0.2344 0.207,0.4766 0.442,0.418 8.648,-0.1055 17.422,-0.2735 26.355,-0.4492 l 1.168,-0.0196 c 0.238,0 0.438,-0.1836 0.414,-0.4297 0,-0.2148 -0.176,-0.4101 -0.414,-0.4101 z m 29.156,-0.4688 v 0 c -3.203,0.0391 -6.379,0.0899 -9.55,0.1758 -0.247,0 -0.411,0.1953 -0.411,0.418 0,0.2383 0.204,0.4219 0.411,0.4219 0.031,0 0.031,0 0.031,0 3.172,-0.086 6.316,-0.1289 9.551,-0.1758 0.234,0 0.398,-0.1758 0.398,-0.418 0,-0.2266 -0.187,-0.4219 -0.43,-0.4219 z m 201.946,-4.3554 h -0.032 c -51.257,1.414 -116.418,2.8437 -183.504,4.0234 -0.238,0 -0.441,0.1953 -0.441,0.4219 0,0.2344 0.234,0.3984 0.441,0.4179 67.086,-1.1796 132.262,-2.5976 183.536,-4.0117 0.222,0 0.398,-0.207 0.398,-0.4414 0,-0.2148 -0.176,-0.4101 -0.398,-0.4101" /><path
         id="path218"
         style="fill:#100f0d;fill-opacity:1;fill-rule:nonzero;stroke:none"
         d="m 252.996,58.0742 c -1.687,0 -3.379,0.0235 -5.066,0.0235 -1.653,0.0078 -3.289,0.0156 -4.942,0.0156 -0.246,0 -0.422,0.1992 -0.422,0.4336 0,0.2344 0.176,0.4179 0.422,0.4179 1.653,0 3.289,-0.0117 4.942,-0.0195 1.687,0 3.379,-0.0273 5.066,-0.0273 0.246,0 0.442,-0.1797 0.442,-0.4219 0,-0.2227 -0.196,-0.4219 -0.442,-0.4219 z m -57.254,-0.1719 c -0.238,0 -0.437,0.1954 -0.437,0.418 0,0.2461 0.175,0.4297 0.41,0.4297 9.812,0.1289 20.066,0.168 29.937,0.2148 v 0 c 0.231,0 0.438,-0.1835 0.438,-0.4179 0,-0.2344 -0.207,-0.4336 -0.438,-0.4336 -9.871,-0.0391 -20.093,-0.086 -29.91,-0.211 z M 72.1523,54.2305 c -0.2343,0 -0.4062,0.1836 -0.4375,0.3984 0,0.2344 0.1797,0.4414 0.4102,0.4492 0.4336,0.0313 44.277,2.3828 104.914,3.418 v 0 c 0.231,0 0.41,-0.1836 0.438,-0.4219 0,-0.2226 -0.207,-0.4179 -0.438,-0.4179 -60.613,-1.043 -104.4218,-3.3868 -104.8632,-3.4258 -0.0235,0 -0.0235,0 -0.0235,0 z M 431.73,49.2578 c -0.031,0 -0.031,0 -0.058,0 -43.899,4.9141 -98.067,7.8203 -160.981,8.6445 -0.242,0.0196 -0.449,0.2032 -0.418,0.4493 0,0.2226 0.176,0.3984 0.418,0.3984 v 0 c 62.961,-0.8281 117.141,-3.7383 161.067,-8.6719 0.234,-0.0078 0.41,-0.2226 0.383,-0.4609 -0.039,-0.2031 -0.207,-0.3594 -0.411,-0.3594" /><path
         id="path220"
         style="fill:#100f0d;fill-opacity:1;fill-rule:nonzero;stroke:none"
         d="m 117.594,140.598 v 0 c -0.235,0 -0.406,0.195 -0.406,0.437 l 2.558,92.028 c 0.035,0.234 0.234,0.406 0.442,0.406 0.234,-0.012 0.437,-0.203 0.402,-0.438 l -2.563,-92.023 c 0,-0.235 -0.207,-0.41 -0.433,-0.41" /><path
         id="path222"
         style="fill:#100f0d;fill-opacity:1;fill-rule:nonzero;stroke:none"
         d="m 108.766,237.793 c 1.371,-1.266 15.961,-5.766 25.281,-8.434 l 18.906,37.274 -25.14,10.574 c -5.239,-10.691 -18.145,-37.07 -19.047,-39.414 z m 25.488,-9.344 c -0.035,0 -0.09,0 -0.117,0.008 -26.735,7.637 -26.364,8.988 -26.246,9.426 0.379,1.43 18.589,38.48 19.339,40.047 0.118,0.207 0.352,0.293 0.559,0.207 l 25.922,-10.895 c 0.09,-0.058 0.172,-0.148 0.234,-0.25 0.024,-0.113 0.024,-0.234 -0.031,-0.332 l -19.281,-37.996 c -0.063,-0.129 -0.235,-0.215 -0.379,-0.215" /><path
         id="path224"
         style="fill:#100f0d;fill-opacity:1;fill-rule:nonzero;stroke:none"
         d="m 135.387,232.453 c -0.032,0 -0.09,0.012 -0.114,0.027 l -23.218,8.024 c -0.231,0.074 -0.344,0.32 -0.258,0.543 0.055,0.215 0.32,0.332 0.516,0.258 l 23.218,-8.028 c 0.231,-0.082 0.352,-0.316 0.266,-0.539 -0.059,-0.168 -0.231,-0.285 -0.41,-0.285" /><path
         id="path226"
         style="fill:#100f0d;fill-opacity:1;fill-rule:nonzero;stroke:none"
         d="m 129.59,272.434 c -0.723,0 -1.309,-0.692 -1.309,-1.579 0,-0.875 0.61,-1.605 1.309,-1.605 0.762,0 1.371,0.742 1.371,1.605 0,0.868 -0.609,1.579 -1.371,1.579 z m 0,-4.024 c -1.16,0 -2.152,1.106 -2.152,2.445 0,1.352 0.96,2.418 2.152,2.418 1.226,0 2.219,-1.074 2.219,-2.418 0,-1.339 -0.993,-2.445 -2.219,-2.445" /><path
         id="path228"
         style="fill:#100f0d;fill-opacity:1;fill-rule:nonzero;stroke:none"
         d="m 135.738,269.563 c -0.699,0 -1.308,-0.735 -1.308,-1.579 0,-0.89 0.582,-1.597 1.308,-1.597 0.754,0 1.336,0.707 1.336,1.597 0,0.86 -0.582,1.579 -1.336,1.579 z m 0,-4.02 c -1.199,0 -2.152,1.09 -2.152,2.441 0,1.329 0.953,2.422 2.152,2.422 1.227,0 2.184,-1.093 2.184,-2.422 0,-1.351 -0.957,-2.441 -2.184,-2.441" /><path
         id="path230"
         style="fill:#100f0d;fill-opacity:1;fill-rule:nonzero;stroke:none"
         d="m 142.18,267.559 c -0.766,0 -1.375,-0.723 -1.375,-1.598 0,-0.859 0.609,-1.555 1.375,-1.555 0.718,0 1.304,0.684 1.304,1.555 0,0.891 -0.609,1.598 -1.304,1.598 z m 0,-4 c -1.227,0 -2.219,1.082 -2.219,2.402 0,1.324 1.016,2.449 2.219,2.449 1.16,0 2.152,-1.09 2.152,-2.449 0,-1.356 -0.965,-2.402 -2.152,-2.402" /><path
         id="path232"
         style="fill:#100f0d;fill-opacity:1;fill-rule:nonzero;stroke:none"
         d="m 147.012,265.023 c -0.735,0 -1.309,-0.675 -1.309,-1.55 0,-0.891 0.61,-1.602 1.309,-1.602 0.754,0 1.371,0.727 1.371,1.602 0,0.855 -0.617,1.55 -1.371,1.55 z m 0,-4.011 c -1.16,0 -2.153,1.109 -2.153,2.461 0,1.336 0.957,2.398 2.153,2.398 1.226,0 2.218,-1.074 2.218,-2.398 0,-1.328 -1.027,-2.461 -2.218,-2.461" /><path
         id="path234"
         style="fill:#100f0d;fill-opacity:1;fill-rule:nonzero;stroke:none"
         d="m 125.977,265.914 c -0.758,0 -1.309,-0.68 -1.309,-1.555 0,-0.902 0.551,-1.621 1.309,-1.621 0.734,0 1.347,0.735 1.347,1.621 0,0.856 -0.613,1.555 -1.347,1.555 z m 0,-4.019 c -1.219,0 -2.153,1.078 -2.153,2.464 0,1.34 0.934,2.399 2.153,2.399 1.203,0 2.191,-1.074 2.191,-2.399 0,-1.351 -0.988,-2.464 -2.191,-2.464" /><path
         id="path236"
         style="fill:#100f0d;fill-opacity:1;fill-rule:nonzero;stroke:none"
         d="m 132.102,263.051 c -0.735,0 -1.317,-0.731 -1.317,-1.606 0,-0.859 0.617,-1.57 1.317,-1.57 0.753,0 1.367,0.695 1.367,1.57 0,0.875 -0.614,1.606 -1.367,1.606 z m 0,-4.024 c -1.2,0 -2.161,1.075 -2.161,2.418 0,1.34 0.961,2.453 2.161,2.453 1.218,0 2.211,-1.113 2.211,-2.453 0,-1.343 -0.993,-2.418 -2.211,-2.418" /><path
         id="path238"
         style="fill:#100f0d;fill-opacity:1;fill-rule:nonzero;stroke:none"
         d="m 138.535,261.012 c -0.758,0 -1.367,-0.699 -1.367,-1.563 0,-0.855 0.609,-1.554 1.367,-1.554 0.727,0 1.313,0.683 1.313,1.554 0,0.879 -0.586,1.563 -1.313,1.563 z m 0,-3.961 c -1.222,0 -2.211,1.078 -2.211,2.398 0,1.328 0.989,2.422 2.211,2.422 1.192,0 2.156,-1.07 2.156,-2.422 0,-1.351 -0.964,-2.398 -2.156,-2.398" /><path
         id="path240"
         style="fill:#100f0d;fill-opacity:1;fill-rule:nonzero;stroke:none"
         d="m 143.398,258.516 c -0.757,0 -1.308,-0.68 -1.308,-1.559 0,-0.887 0.574,-1.594 1.308,-1.594 0.727,0 1.336,0.723 1.336,1.594 0,0.859 -0.609,1.559 -1.336,1.559 z m 0,-4 c -1.195,0 -2.152,1.089 -2.152,2.441 0,1.359 0.934,2.402 2.152,2.402 1.192,0 2.184,-1.074 2.184,-2.402 0,-1.32 -0.992,-2.441 -2.184,-2.441" /><path
         id="path242"
         style="fill:#100f0d;fill-opacity:1;fill-rule:nonzero;stroke:none"
         d="m 122.832,260.051 c -0.723,0 -1.309,-0.731 -1.309,-1.602 0,-0.89 0.586,-1.578 1.309,-1.578 0.762,0 1.371,0.699 1.371,1.578 0,0.852 -0.64,1.602 -1.371,1.602 z m 0,-4.024 c -1.191,0 -2.152,1.067 -2.152,2.422 0,1.336 0.961,2.446 2.152,2.446 1.195,0 2.219,-1.125 2.219,-2.446 0,-1.344 -0.992,-2.422 -2.219,-2.422" /><path
         id="path244"
         style="fill:#100f0d;fill-opacity:1;fill-rule:nonzero;stroke:none"
         d="m 128.98,257.141 c -0.726,0 -1.316,-0.735 -1.316,-1.578 0,-0.844 0.59,-1.555 1.316,-1.555 0.731,0 1.34,0.699 1.34,1.555 0,0.859 -0.609,1.578 -1.34,1.578 z m 0,-3.977 c -1.191,0 -2.156,1.074 -2.156,2.399 0,1.328 0.965,2.421 2.156,2.421 1.196,0 2.188,-1.093 2.188,-2.421 0,-1.325 -0.992,-2.399 -2.188,-2.399" /><path
         id="path246"
         style="fill:#100f0d;fill-opacity:1;fill-rule:nonzero;stroke:none"
         d="m 135.387,255.137 c -0.731,0 -1.34,-0.699 -1.34,-1.551 0,-0.895 0.609,-1.602 1.34,-1.602 0.73,0 1.312,0.707 1.312,1.602 0,0.844 -0.582,1.551 -1.312,1.551 z m 0,-4 c -1.192,0 -2.184,1.09 -2.184,2.449 0,1.32 0.992,2.394 2.184,2.394 1.195,0 2.156,-1.074 2.156,-2.394 0,-1.359 -0.961,-2.449 -2.156,-2.449" /><path
         id="path248"
         style="fill:#100f0d;fill-opacity:1;fill-rule:nonzero;stroke:none"
         d="m 140.254,252.648 c -0.734,0 -1.309,-0.71 -1.309,-1.597 0,-0.879 0.575,-1.578 1.309,-1.578 0.758,0 1.367,0.718 1.367,1.578 0,0.875 -0.644,1.597 -1.367,1.597 z m 0,-4.019 c -1.195,0 -2.156,1.062 -2.156,2.422 0,1.351 0.961,2.441 2.156,2.441 1.191,0 2.219,-1.117 2.219,-2.441 0,-1.328 -0.993,-2.422 -2.219,-2.422" /><path
         id="path250"
         style="fill:#100f0d;fill-opacity:1;fill-rule:nonzero;stroke:none"
         d="m 120.973,253.871 c -0.731,0 -1.34,-0.695 -1.34,-1.551 0,-0.863 0.609,-1.578 1.34,-1.578 0.722,0 1.308,0.735 1.308,1.578 0,0.844 -0.586,1.551 -1.308,1.551 z m 0,-3.973 c -1.192,0 -2.184,1.094 -2.184,2.422 0,1.317 0.992,2.399 2.184,2.399 1.191,0 2.152,-1.082 2.152,-2.399 0,-1.328 -0.961,-2.422 -2.152,-2.422" /><path
         id="path252"
         style="fill:#100f0d;fill-opacity:1;fill-rule:nonzero;stroke:none"
         d="m 127.113,251.008 c -0.758,0 -1.367,-0.703 -1.367,-1.559 0,-0.879 0.641,-1.621 1.367,-1.621 0.731,0 1.317,0.731 1.317,1.621 0,0.867 -0.586,1.559 -1.317,1.559 z m 0,-4.024 c -1.195,0 -2.211,1.121 -2.211,2.465 0,1.317 0.993,2.403 2.211,2.403 1.2,0 2.16,-1.067 2.16,-2.403 0,-1.351 -0.96,-2.465 -2.16,-2.465" /><path
         id="path254"
         style="fill:#100f0d;fill-opacity:1;fill-rule:nonzero;stroke:none"
         d="m 133.496,249.023 c -0.73,0 -1.308,-0.726 -1.308,-1.617 0,-0.871 0.578,-1.562 1.308,-1.562 0.758,0 1.34,0.699 1.34,1.562 0,0.875 -0.617,1.617 -1.34,1.617 z m 0,-4.023 c -1.226,0 -2.156,1.07 -2.156,2.406 0,1.356 0.961,2.461 2.156,2.461 1.192,0 2.184,-1.117 2.184,-2.461 0,-1.328 -0.961,-2.406 -2.184,-2.406" /><path
         id="path256"
         style="fill:#100f0d;fill-opacity:1;fill-rule:nonzero;stroke:none"
         d="m 138.383,246.477 c -0.723,0 -1.336,-0.7 -1.336,-1.559 0,-0.859 0.613,-1.559 1.336,-1.559 0.762,0 1.32,0.684 1.32,1.559 0,0.875 -0.558,1.559 -1.32,1.559 z m 0,-3.961 c -1.192,0 -2.184,1.078 -2.184,2.402 0,1.324 0.992,2.402 2.184,2.402 1.226,0 2.164,-1.05 2.164,-2.402 0,-1.359 -0.938,-2.402 -2.164,-2.402" /><path
         id="path258"
         style="fill:#100f0d;fill-opacity:1;fill-rule:nonzero;stroke:none"
         d="m 117.594,247.871 c -0.731,0 -1.34,-0.699 -1.34,-1.551 0,-0.879 0.609,-1.601 1.34,-1.601 0.695,0 1.308,0.734 1.308,1.601 0,0.844 -0.586,1.551 -1.308,1.551 z m 0,-4.004 c -1.192,0 -2.184,1.125 -2.184,2.453 0,1.317 0.992,2.395 2.184,2.395 1.195,0 2.152,-1.078 2.152,-2.395 0,-1.328 -0.992,-2.453 -2.152,-2.453" /><path
         id="path260"
         style="fill:#100f0d;fill-opacity:1;fill-rule:nonzero;stroke:none"
         d="m 123.734,245 c -0.754,0 -1.367,-0.723 -1.367,-1.598 0,-0.859 0.613,-1.574 1.367,-1.574 0.735,0 1.317,0.688 1.317,1.574 0,0.899 -0.582,1.598 -1.317,1.598 z m 0,-4.02 c -1.218,0 -2.211,1.083 -2.211,2.422 0,1.34 0.993,2.442 2.211,2.442 1.2,0 2.161,-1.074 2.161,-2.442 0,-1.351 -0.961,-2.422 -2.161,-2.422" /><path
         id="path262"
         style="fill:#100f0d;fill-opacity:1;fill-rule:nonzero;stroke:none"
         d="m 130.117,242.984 c -0.73,0 -1.308,-0.687 -1.308,-1.578 0,-0.875 0.578,-1.562 1.308,-1.562 0.758,0 1.336,0.703 1.336,1.562 0,0.86 -0.578,1.578 -1.336,1.578 z m 0,-3.98 c -1.226,0 -2.156,1.066 -2.156,2.402 0,1.352 0.93,2.422 2.156,2.422 1.223,0 2.184,-1.094 2.184,-2.422 0,-1.328 -0.961,-2.402 -2.184,-2.402" /><path
         id="path264"
         style="fill:#100f0d;fill-opacity:1;fill-rule:nonzero;stroke:none"
         d="m 135.012,240.473 c -0.731,0 -1.344,-0.696 -1.344,-1.555 0,-0.875 0.613,-1.602 1.344,-1.602 0.726,0 1.312,0.711 1.312,1.602 0,0.871 -0.562,1.555 -1.312,1.555 z m 0,-4.008 c -1.199,0 -2.192,1.129 -2.192,2.453 0,1.32 0.993,2.422 2.192,2.422 1.218,0 2.156,-1.07 2.156,-2.422 0,-1.359 -0.969,-2.453 -2.156,-2.453" /><path
         id="path266"
         style="fill:#100f0d;fill-opacity:1;fill-rule:nonzero;stroke:none"
         d="m 328.965,272.344 18.933,-37.274 c 9.329,2.664 23.911,7.168 25.286,8.43 -0.926,2.336 -13.809,28.707 -19.024,39.414 z m 18.703,-38.203 c -0.148,0 -0.297,0.082 -0.371,0.23 l -19.301,37.984 c -0.016,0.118 -0.047,0.235 0,0.352 0.039,0.102 0.129,0.188 0.246,0.234 l 25.946,10.903 c 0.207,0.086 0.453,0 0.558,-0.207 0.75,-1.586 18.906,-38.66 19.285,-40.043 0.141,-0.438 0.489,-1.793 -26.238,-9.438 -0.039,0 -0.066,-0.015 -0.125,-0.015" /><path
         id="path268"
         style="fill:#100f0d;fill-opacity:1;fill-rule:nonzero;stroke:none"
         d="m 346.594,238.156 c -0.215,0 -0.356,0.106 -0.41,0.278 -0.079,0.238 0.027,0.472 0.261,0.543 l 23.157,8.039 c 0.234,0.07 0.464,-0.047 0.554,-0.266 0.047,-0.215 -0.058,-0.465 -0.261,-0.535 l -23.184,-8.027 c -0.039,-0.032 -0.09,-0.032 -0.117,-0.032" /><path
         id="path270"
         style="fill:#100f0d;fill-opacity:1;fill-rule:nonzero;stroke:none"
         d="m 352.324,278.121 c -0.722,0 -1.308,-0.683 -1.308,-1.558 0,-0.899 0.586,-1.602 1.308,-1.602 0.762,0 1.348,0.715 1.348,1.602 0,0.859 -0.586,1.558 -1.348,1.558 z m 0,-4 c -1.219,0 -2.148,1.074 -2.148,2.442 0,1.359 0.929,2.417 2.148,2.417 1.231,0 2.188,-1.093 2.188,-2.417 0,-1.356 -0.957,-2.442 -2.188,-2.442" /><path
         id="path272"
         style="fill:#100f0d;fill-opacity:1;fill-rule:nonzero;stroke:none"
         d="m 346.184,275.25 c -0.735,0 -1.34,-0.707 -1.34,-1.598 0,-0.859 0.605,-1.558 1.34,-1.558 0.757,0 1.316,0.679 1.316,1.558 0,0.899 -0.559,1.598 -1.316,1.598 z m 0,-4 c -1.204,0 -2.192,1.074 -2.192,2.402 0,1.352 0.988,2.442 2.192,2.442 1.226,0 2.156,-1.074 2.156,-2.442 0,-1.355 -0.93,-2.402 -2.156,-2.402" /><path
         id="path274"
         style="fill:#100f0d;fill-opacity:1;fill-rule:nonzero;stroke:none"
         d="m 339.805,273.234 c -0.735,0 -1.336,-0.711 -1.336,-1.562 0,-0.875 0.601,-1.574 1.336,-1.574 0.754,0 1.316,0.683 1.316,1.574 0,0.871 -0.562,1.562 -1.316,1.562 z m 0,-3.984 c -1.2,0 -2.188,1.078 -2.188,2.422 0,1.32 0.988,2.406 2.188,2.406 1.23,0 2.16,-1.07 2.16,-2.406 0,-1.356 -0.93,-2.422 -2.16,-2.422" /><path
         id="path276"
         style="fill:#100f0d;fill-opacity:1;fill-rule:nonzero;stroke:none"
         d="m 334.91,270.742 c -0.722,0 -1.305,-0.687 -1.305,-1.578 0,-0.871 0.583,-1.605 1.305,-1.605 0.727,0 1.328,0.742 1.328,1.605 0,0.875 -0.562,1.578 -1.328,1.578 z m 0,-4.023 c -1.199,0 -2.156,1.109 -2.156,2.445 0,1.356 0.937,2.418 2.156,2.418 1.223,0 2.18,-1.074 2.18,-2.418 0,-1.328 -0.985,-2.445 -2.18,-2.445" /><path
         id="path278"
         style="fill:#100f0d;fill-opacity:1;fill-rule:nonzero;stroke:none"
         d="m 355.969,271.625 c -0.766,0 -1.313,-0.711 -1.313,-1.613 0,-0.875 0.547,-1.563 1.313,-1.563 0.719,0 1.344,0.696 1.344,1.563 0,0.886 -0.625,1.613 -1.344,1.613 z m 0,-4.023 c -1.223,0 -2.16,1.07 -2.16,2.41 0,1.386 0.937,2.461 2.16,2.461 1.199,0 2.183,-1.11 2.183,-2.461 0,-1.328 -0.984,-2.41 -2.183,-2.41" /><path
         id="path280"
         style="fill:#100f0d;fill-opacity:1;fill-rule:nonzero;stroke:none"
         d="m 349.824,268.742 c -0.73,0 -1.34,-0.722 -1.34,-1.601 0,-0.856 0.61,-1.555 1.34,-1.555 0.723,0 1.309,0.68 1.309,1.555 0,0.886 -0.586,1.601 -1.309,1.601 z m 0,-4 c -1.191,0 -2.187,1.074 -2.187,2.399 0,1.328 0.996,2.445 2.187,2.445 1.192,0 2.156,-1.09 2.156,-2.445 0,-1.356 -0.933,-2.399 -2.156,-2.399" /><path
         id="path282"
         style="fill:#100f0d;fill-opacity:1;fill-rule:nonzero;stroke:none"
         d="m 343.445,266.719 c -0.757,0 -1.343,-0.703 -1.343,-1.559 0,-0.871 0.625,-1.601 1.343,-1.601 0.727,0 1.313,0.714 1.313,1.601 0,0.875 -0.586,1.559 -1.313,1.559 z m 0,-4.004 c -1.199,0 -2.183,1.125 -2.183,2.445 0,1.324 0.965,2.399 2.183,2.399 1.223,0 2.16,-1.043 2.16,-2.399 0,-1.351 -0.964,-2.445 -2.16,-2.445" /><path
         id="path284"
         style="fill:#100f0d;fill-opacity:1;fill-rule:nonzero;stroke:none"
         d="m 338.555,264.23 c -0.762,0 -1.321,-0.683 -1.321,-1.558 0,-0.902 0.559,-1.621 1.321,-1.621 0.722,0 1.34,0.73 1.34,1.621 0,0.855 -0.618,1.558 -1.34,1.558 z m 0,-4.023 c -1.231,0 -2.16,1.078 -2.16,2.465 0,1.336 0.929,2.398 2.16,2.398 1.191,0 2.187,-1.074 2.187,-2.398 0,-1.352 -0.996,-2.465 -2.187,-2.465" /><path
         id="path286"
         style="fill:#100f0d;fill-opacity:1;fill-rule:nonzero;stroke:none"
         d="m 359.082,265.742 c -0.723,0 -1.309,-0.719 -1.309,-1.601 0,-0.875 0.586,-1.559 1.309,-1.559 0.762,0 1.367,0.699 1.367,1.559 0,0.875 -0.636,1.601 -1.367,1.601 z m 0,-4.004 c -1.191,0 -2.148,1.047 -2.148,2.403 0,1.351 0.957,2.445 2.148,2.445 1.191,0 2.219,-1.121 2.219,-2.445 0,-1.325 -0.988,-2.403 -2.219,-2.403" /><path
         id="path288"
         style="fill:#100f0d;fill-opacity:1;fill-rule:nonzero;stroke:none"
         d="m 352.969,262.828 c -0.762,0 -1.367,-0.699 -1.367,-1.555 0,-0.878 0.605,-1.601 1.367,-1.601 0.722,0 1.34,0.723 1.34,1.601 0,0.856 -0.618,1.555 -1.34,1.555 z m 0,-4 c -1.192,0 -2.215,1.117 -2.215,2.445 0,1.325 0.984,2.399 2.215,2.399 1.191,0 2.187,-1.074 2.187,-2.399 0,-1.355 -0.996,-2.445 -2.187,-2.445" /><path
         id="path290"
         style="fill:#100f0d;fill-opacity:1;fill-rule:nonzero;stroke:none"
         d="m 346.594,260.852 c -0.766,0 -1.367,-0.731 -1.367,-1.602 0,-0.879 0.601,-1.578 1.367,-1.578 0.719,0 1.304,0.687 1.304,1.578 0,0.887 -0.585,1.602 -1.304,1.602 z m 0,-4.024 c -1.235,0 -2.219,1.078 -2.219,2.422 0,1.336 0.984,2.445 2.219,2.445 1.199,0 2.144,-1.078 2.144,-2.445 0,-1.355 -0.945,-2.422 -2.144,-2.422" /><path
         id="path292"
         style="fill:#100f0d;fill-opacity:1;fill-rule:nonzero;stroke:none"
         d="m 341.672,258.359 c -0.727,0 -1.313,-0.73 -1.313,-1.617 0,-0.871 0.586,-1.562 1.313,-1.562 0.762,0 1.363,0.699 1.363,1.562 0,0.871 -0.64,1.617 -1.363,1.617 z m 0,-4.023 c -1.203,0 -2.16,1.07 -2.16,2.406 0,1.356 0.957,2.461 2.16,2.461 1.187,0 2.207,-1.117 2.207,-2.461 0,-1.328 -0.988,-2.406 -2.207,-2.406" /><path
         id="path294"
         style="fill:#100f0d;fill-opacity:1;fill-rule:nonzero;stroke:none"
         d="m 360.977,259.586 c -0.723,0 -1.336,-0.703 -1.336,-1.559 0,-0.879 0.613,-1.621 1.336,-1.621 0.734,0 1.347,0.735 1.347,1.621 0,0.871 -0.586,1.559 -1.347,1.559 z m 0,-4.023 c -1.164,0 -2.188,1.117 -2.188,2.464 0,1.321 0.996,2.403 2.188,2.403 1.23,0 2.16,-1.071 2.16,-2.403 0,-1.355 -0.969,-2.464 -2.16,-2.464" /><path
         id="path296"
         style="fill:#100f0d;fill-opacity:1;fill-rule:nonzero;stroke:none"
         d="m 354.836,256.715 c -0.734,0 -1.32,-0.735 -1.32,-1.578 0,-0.867 0.586,-1.602 1.32,-1.602 0.73,0 1.336,0.715 1.336,1.602 0,0.863 -0.606,1.578 -1.336,1.578 z m 0,-4.024 c -1.191,0 -2.16,1.094 -2.16,2.446 0,1.328 0.969,2.422 2.16,2.422 1.199,0 2.184,-1.094 2.184,-2.422 0,-1.352 -0.985,-2.446 -2.184,-2.446" /><path
         id="path298"
         style="fill:#100f0d;fill-opacity:1;fill-rule:nonzero;stroke:none"
         d="m 348.43,254.719 c -0.703,0 -1.313,-0.711 -1.313,-1.602 0,-0.875 0.578,-1.558 1.313,-1.558 0.758,0 1.367,0.699 1.367,1.558 0,0.871 -0.609,1.602 -1.367,1.602 z m 0,-4.004 c -1.203,0 -2.16,1.043 -2.16,2.402 0,1.356 0.988,2.446 2.16,2.446 1.187,0 2.207,-1.125 2.207,-2.446 0,-1.324 -0.989,-2.402 -2.207,-2.402" /><path
         id="path300"
         style="fill:#100f0d;fill-opacity:1;fill-rule:nonzero;stroke:none"
         d="m 343.563,252.184 c -0.731,0 -1.336,-0.7 -1.336,-1.555 0,-0.879 0.605,-1.606 1.336,-1.606 0.722,0 1.308,0.719 1.308,1.606 0,0.871 -0.555,1.555 -1.308,1.555 z m 0,-4.004 c -1.168,0 -2.184,1.121 -2.184,2.449 0,1.32 0.984,2.398 2.184,2.398 1.21,0 2.16,-1.043 2.16,-2.398 0,-1.359 -0.965,-2.449 -2.16,-2.449" /><path
         id="path302"
         style="fill:#100f0d;fill-opacity:1;fill-rule:nonzero;stroke:none"
         d="m 364.387,253.586 c -0.754,0 -1.367,-0.734 -1.367,-1.602 0,-0.879 0.613,-1.578 1.367,-1.578 0.73,0 1.316,0.688 1.316,1.578 0,0.887 -0.586,1.602 -1.316,1.602 z m 0,-4.023 c -1.223,0 -2.219,1.078 -2.219,2.421 0,1.336 0.996,2.446 2.219,2.446 1.199,0 2.168,-1.086 2.168,-2.446 0,-1.355 -0.969,-2.421 -2.168,-2.421" /><path
         id="path304"
         style="fill:#100f0d;fill-opacity:1;fill-rule:nonzero;stroke:none"
         d="m 358.242,250.715 c -0.722,0 -1.347,-0.742 -1.347,-1.617 0,-0.864 0.585,-1.563 1.347,-1.563 0.723,0 1.309,0.719 1.309,1.563 0,0.859 -0.606,1.617 -1.309,1.617 z m 0,-4.024 c -1.191,0 -2.187,1.079 -2.187,2.407 0,1.343 0.996,2.461 2.187,2.461 1.172,0 2.156,-1.118 2.156,-2.461 0,-1.328 -0.964,-2.407 -2.156,-2.407" /><path
         id="path306"
         style="fill:#100f0d;fill-opacity:1;fill-rule:nonzero;stroke:none"
         d="m 351.824,248.672 c -0.75,0 -1.328,-0.684 -1.328,-1.559 0,-0.886 0.609,-1.593 1.328,-1.593 0.742,0 1.352,0.722 1.352,1.593 0,0.86 -0.61,1.559 -1.352,1.559 z m 0,-4 c -1.187,0 -2.176,1.09 -2.176,2.441 0,1.36 0.957,2.403 2.176,2.403 1.203,0 2.192,-1.078 2.192,-2.403 0,-1.351 -0.989,-2.441 -2.192,-2.441" /><path
         id="path308"
         style="fill:#100f0d;fill-opacity:1;fill-rule:nonzero;stroke:none"
         d="m 346.965,246.184 c -0.754,0 -1.36,-0.7 -1.36,-1.555 0,-0.887 0.606,-1.602 1.36,-1.602 0.73,0 1.316,0.7 1.316,1.602 0,0.871 -0.586,1.555 -1.316,1.555 z m 0,-4.004 c -1.223,0 -2.207,1.086 -2.207,2.449 0,1.32 0.984,2.398 2.207,2.398 1.187,0 2.156,-1.047 2.156,-2.398 0,-1.387 -0.969,-2.449 -2.156,-2.449" /><path
         id="path310"
         style="fill:#100f0d;fill-opacity:1;fill-rule:nonzero;stroke:none"
         d="m 356.086,142.93 c 0,0 0,0 -0.031,0 -0.227,0.011 -0.403,0.207 -0.379,0.437 l 5.535,95.16 c 0,0.235 0.168,0.403 0.437,0.391 0.239,-0.012 0.403,-0.223 0.403,-0.449 l -5.535,-95.149 c -0.024,-0.246 -0.188,-0.39 -0.43,-0.39" /></g></g></svg>